<svg xmlns="http://www.w3.org/2000/svg" xmlns:xlink="http://www.w3.org/1999/xlink" width="500" zoomAndPan="magnify" viewBox="0 0 375 172.499995" height="230" preserveAspectRatio="xMidYMid meet" version="1.0"><defs><g/><clipPath id="65203e520e"><path d="M 116.152344 113.941406 L 259.203125 113.941406 L 259.203125 135.960938 L 116.152344 135.960938 Z M 116.152344 113.941406 " clip-rule="nonzero"/></clipPath></defs><g fill="#4c4556" fill-opacity="1"><g transform="translate(90.756372, 105.774054)"><g><path d="M 29.808594 -67.359375 C 30.773438 -69.296875 30.84375 -69.503906 30.222656 -69.089844 C 29.945312 -68.949219 29.808594 -68.671875 29.808594 -68.535156 C 29.808594 -68.398438 29.667969 -68.257812 29.53125 -68.257812 C 29.460938 -68.257812 29.324219 -67.980469 29.253906 -67.636719 C 29.117188 -67.359375 28.90625 -66.804688 28.769531 -66.53125 C 28.5625 -66.324219 28.492188 -65.976562 28.5625 -65.839844 C 28.769531 -65.421875 28.976562 -65.628906 29.808594 -67.359375 Z M 68.050781 -81.328125 C 67.84375 -81.46875 67.707031 -81.675781 67.773438 -81.746094 C 67.84375 -81.882812 67.773438 -82.019531 67.566406 -82.019531 C 67.359375 -82.019531 67.152344 -82.230469 67.082031 -82.503906 C 66.875 -83.058594 66.324219 -83.472656 65.976562 -83.195312 C 65.078125 -82.644531 58.367188 -77.664062 58.300781 -77.457031 C 58.160156 -77.042969 58.714844 -77.25 59.683594 -78.011719 C 60.789062 -78.769531 62.105469 -79.53125 62.105469 -79.324219 C 62.105469 -79.324219 61.621094 -78.976562 60.996094 -78.5625 C 60.027344 -78.078125 59.335938 -77.386719 59.613281 -77.109375 C 59.613281 -77.109375 60.167969 -77.25 60.789062 -77.527344 C 61.480469 -77.800781 62.449219 -78.21875 63.003906 -78.425781 C 63.554688 -78.5625 64.039062 -78.910156 64.039062 -79.046875 C 64.109375 -79.253906 64.246094 -79.324219 64.453125 -79.1875 C 64.800781 -78.910156 64.664062 -78.5625 62.863281 -74.96875 C 60.027344 -69.019531 54.773438 -62.3125 46.957031 -54.632812 C 44.261719 -51.9375 42.53125 -50.070312 42.671875 -50 C 42.878906 -49.933594 42.808594 -49.722656 42.53125 -49.515625 C 40.59375 -47.789062 40.457031 -47.71875 41.5625 -48.894531 C 42.117188 -49.515625 42.460938 -50 42.394531 -50 C 42.1875 -50 40.113281 -48.273438 39.417969 -47.511719 C 39.28125 -47.304688 38.3125 -46.542969 37.277344 -45.644531 C 36.101562 -44.675781 35.476562 -43.984375 35.476562 -43.777344 C 35.546875 -43.570312 35.546875 -43.429688 35.410156 -43.363281 C 35.269531 -43.292969 35.203125 -43.292969 35.203125 -43.429688 C 35.203125 -43.570312 35.132812 -43.707031 34.992188 -43.707031 C 34.855469 -43.707031 34.785156 -43.570312 34.785156 -43.363281 C 34.785156 -43.15625 34.648438 -43.085938 34.578125 -43.15625 C 34.441406 -43.222656 34.234375 -43.15625 34.027344 -43.015625 C 33.886719 -42.808594 33.542969 -42.53125 33.265625 -42.253906 C 32.988281 -42.046875 32.089844 -41.355469 31.328125 -40.664062 C 30.566406 -39.972656 29.117188 -38.867188 28.148438 -38.175781 C 27.179688 -37.414062 26.417969 -36.722656 26.417969 -36.585938 C 26.417969 -36.445312 26.28125 -36.308594 26.140625 -36.308594 C 26.003906 -36.308594 25.65625 -36.101562 25.449219 -35.894531 C 25.171875 -35.683594 24.828125 -35.476562 24.6875 -35.410156 C 24.550781 -35.339844 23.375 -34.507812 22.128906 -33.542969 C 20.054688 -32.019531 18.328125 -30.84375 15.558594 -29.253906 L 14.523438 -28.5625 L 15.351562 -30.359375 C 16.804688 -33.402344 19.15625 -38.105469 19.296875 -38.246094 C 19.640625 -38.519531 20.539062 -40.664062 20.46875 -40.941406 C 20.402344 -41.148438 20.539062 -41.425781 20.746094 -41.5625 C 21.164062 -41.839844 25.382812 -50.207031 25.382812 -50.691406 C 25.382812 -50.832031 25.519531 -50.96875 25.589844 -51.039062 C 25.726562 -51.109375 28.699219 -56.984375 28.699219 -57.261719 C 28.699219 -57.332031 29.253906 -58.367188 29.808594 -59.613281 C 31.675781 -63.417969 34.992188 -71.023438 36.929688 -76.144531 C 37.136719 -76.695312 37.34375 -77.320312 37.414062 -77.457031 C 37.484375 -77.664062 37.898438 -78.769531 38.3125 -80.015625 C 39.144531 -82.710938 39.417969 -85.824219 38.796875 -86.65625 C 38.589844 -86.929688 38.519531 -87.277344 38.589844 -87.347656 C 38.660156 -87.414062 38.382812 -87.484375 38.035156 -87.414062 C 37.414062 -87.347656 37.277344 -87.414062 37.136719 -87.832031 C 36.859375 -88.730469 35.617188 -88.589844 34.648438 -87.691406 C 34.164062 -87.140625 33.957031 -86.792969 34.027344 -86.515625 C 34.09375 -86.238281 34.027344 -86.171875 33.816406 -86.308594 C 33.472656 -86.445312 32.574219 -85.480469 32.710938 -85.0625 C 32.78125 -84.855469 32.710938 -84.789062 32.433594 -84.789062 C 32.089844 -84.789062 31.191406 -83.886719 28.148438 -80.429688 C 27.664062 -79.808594 26.347656 -78.425781 25.3125 -77.320312 C 24.34375 -76.144531 22.683594 -74.207031 21.714844 -73.03125 C 20.746094 -71.785156 19.710938 -70.539062 19.433594 -70.265625 C 19.085938 -69.988281 18.328125 -69.019531 17.636719 -68.121094 C 17.011719 -67.289062 16.320312 -66.460938 16.253906 -66.460938 C 16.113281 -66.324219 15.976562 -66.113281 15.976562 -65.839844 C 15.976562 -65.628906 15.90625 -65.421875 15.835938 -65.421875 C 15.007812 -65.421875 15.628906 -63.070312 16.667969 -62.105469 C 17.429688 -61.34375 18.050781 -61.203125 18.464844 -61.6875 C 19.988281 -63.625 20.886719 -64.800781 21.714844 -65.839844 C 22.820312 -67.359375 27.523438 -72.960938 29.390625 -74.96875 C 30.082031 -75.726562 30.914062 -76.695312 31.191406 -77.042969 C 31.464844 -77.386719 31.675781 -77.59375 31.742188 -77.527344 C 31.8125 -77.457031 30.222656 -73.515625 28.839844 -70.402344 C 28.214844 -69.089844 27.386719 -67.222656 26.972656 -66.324219 C 26.554688 -65.421875 25.796875 -63.761719 25.242188 -62.65625 C 24.621094 -61.410156 24.273438 -60.511719 24.414062 -60.445312 C 24.480469 -60.375 24.6875 -60.445312 24.828125 -60.582031 C 24.964844 -60.859375 24.964844 -60.859375 24.964844 -60.652344 C 24.964844 -60.097656 25.382812 -60.582031 25.933594 -61.621094 C 26.210938 -62.171875 26.554688 -62.933594 26.832031 -63.347656 C 26.972656 -63.695312 27.179688 -64.109375 27.179688 -64.316406 C 27.179688 -64.800781 30.292969 -70.957031 30.5 -70.816406 C 30.566406 -70.75 30.566406 -70.472656 30.429688 -70.265625 C 30.152344 -69.710938 30.152344 -69.574219 30.5 -69.574219 C 30.707031 -69.574219 31.050781 -69.847656 31.257812 -70.195312 C 31.675781 -70.679688 31.742188 -70.679688 31.742188 -70.332031 C 31.742188 -69.574219 30.222656 -66.183594 28.425781 -62.585938 C 27.457031 -60.789062 26.554688 -58.851562 26.347656 -58.230469 C 26.074219 -57.609375 25.449219 -56.15625 24.828125 -55.050781 C 24.273438 -53.875 23.582031 -52.492188 23.375 -51.9375 C 23.097656 -51.382812 22.613281 -50.414062 22.269531 -49.863281 C 21.921875 -49.242188 21.371094 -48.066406 21.023438 -47.164062 C 20.261719 -45.4375 19.296875 -43.570312 17.496094 -40.25 C 16.804688 -39.003906 15.421875 -36.378906 14.453125 -34.441406 C 13.484375 -32.503906 12.171875 -29.808594 11.550781 -28.492188 C 10.859375 -27.179688 10.167969 -26.074219 9.957031 -26.003906 C 9.75 -25.933594 9.128906 -25.589844 8.574219 -25.242188 C 8.023438 -24.898438 7.46875 -24.6875 7.46875 -24.6875 C 7.398438 -24.757812 7.539062 -25.035156 7.675781 -25.3125 C 8.160156 -26.28125 10.234375 -30.429688 10.234375 -30.566406 C 10.234375 -30.636719 10.375 -30.914062 10.582031 -31.257812 C 11.132812 -32.019531 11.617188 -33.609375 11.480469 -33.886719 C 11.410156 -34.027344 11.480469 -34.164062 11.617188 -34.164062 C 11.824219 -34.164062 12.101562 -34.578125 12.308594 -35.0625 C 12.515625 -35.546875 12.792969 -36.03125 12.863281 -36.101562 C 13.070312 -36.308594 14.175781 -38.519531 14.175781 -38.867188 C 14.175781 -39.003906 14.316406 -39.28125 14.523438 -39.417969 C 14.730469 -39.628906 15.351562 -40.734375 15.976562 -41.910156 C 16.527344 -43.085938 17.152344 -44.261719 17.359375 -44.539062 C 17.566406 -44.8125 17.703125 -45.160156 17.703125 -45.296875 C 17.703125 -45.644531 18.1875 -46.613281 19.503906 -48.964844 C 21.4375 -52.558594 24.964844 -59.753906 24.828125 -59.960938 C 24.757812 -60.027344 24.550781 -60.097656 24.34375 -60.167969 C 24.066406 -60.167969 23.304688 -58.851562 21.371094 -55.050781 C 19.988281 -52.214844 18.535156 -49.378906 18.1875 -48.824219 C 16.945312 -46.472656 12.035156 -36.652344 12.035156 -36.445312 C 12.035156 -36.238281 11.964844 -36.167969 11.824219 -36.167969 C 11.6875 -36.167969 11.617188 -36.03125 11.617188 -35.824219 C 11.617188 -35.683594 11.273438 -34.855469 10.789062 -34.027344 C 10.375 -33.265625 10.027344 -32.433594 10.027344 -32.296875 C 10.027344 -32.089844 9.957031 -31.949219 9.890625 -31.882812 C 9.75 -31.882812 9.128906 -30.707031 8.4375 -29.324219 C 7.332031 -27.25 7.191406 -26.765625 7.332031 -26.28125 C 7.539062 -25.933594 7.539062 -25.796875 7.261719 -25.65625 C 7.054688 -25.589844 6.984375 -25.382812 7.054688 -25.171875 C 7.125 -24.964844 7.054688 -24.621094 6.984375 -24.550781 C 6.777344 -24.207031 5.671875 -23.511719 4.082031 -22.753906 C 2.972656 -22.199219 2.90625 -22.128906 2.765625 -21.230469 C 2.558594 -20.332031 2.90625 -18.742188 3.25 -18.742188 C 3.527344 -18.742188 3.457031 -17.359375 3.179688 -16.945312 C 2.972656 -16.667969 2.972656 -16.804688 3.113281 -17.289062 C 3.179688 -17.910156 3.179688 -17.910156 2.90625 -17.496094 C 2.695312 -17.289062 2.558594 -17.011719 2.558594 -16.875 C 2.558594 -16.734375 2.351562 -16.183594 2.144531 -15.699219 C 1.730469 -14.9375 0.484375 -11.132812 -0.0703125 -9.128906 C -0.621094 -7.191406 -0.96875 -3.941406 -0.691406 -2.695312 C -0.414062 -1.246094 -0.136719 -0.761719 1.175781 0.414062 C 2.074219 1.175781 2.351562 1.246094 2.90625 1.175781 C 3.804688 0.96875 4.355469 0.484375 4.355469 -0.136719 C 4.355469 -0.484375 4.496094 -0.96875 4.703125 -1.382812 C 5.394531 -2.765625 5.601562 -5.808594 4.980469 -5.808594 C 4.5625 -5.808594 5.046875 -7.332031 6.984375 -12.449219 C 7.816406 -14.660156 9.820312 -18.878906 10.027344 -19.085938 C 10.925781 -19.640625 19.570312 -20.125 28.492188 -20.261719 C 32.917969 -20.261719 37.136719 -20.402344 37.898438 -20.539062 C 38.726562 -20.609375 40.386719 -20.609375 41.910156 -20.539062 C 43.636719 -20.402344 45.851562 -20.46875 48.203125 -20.609375 C 52.285156 -20.886719 56.847656 -20.886719 57.675781 -20.539062 C 57.953125 -20.402344 58.230469 -20.195312 58.230469 -19.988281 C 58.230469 -19.847656 57.539062 -19.085938 56.777344 -18.394531 C 55.394531 -17.082031 55.117188 -16.597656 55.671875 -16.597656 C 55.878906 -16.597656 56.019531 -16.460938 56.085938 -16.320312 C 56.15625 -16.042969 56.226562 -16.042969 56.5 -16.320312 C 56.710938 -16.460938 57.054688 -16.527344 57.261719 -16.460938 C 57.539062 -16.390625 57.953125 -16.597656 58.300781 -16.804688 C 59.335938 -17.636719 60.71875 -19.15625 60.71875 -19.570312 C 60.71875 -20.746094 58.644531 -23.375 57.332031 -23.859375 C 55.878906 -24.414062 49.722656 -24.621094 45.988281 -24.207031 C 43.636719 -23.996094 42.046875 -23.929688 40.113281 -24.136719 C 38.035156 -24.273438 37.207031 -24.207031 36.515625 -23.996094 C 35.269531 -23.582031 31.464844 -23.445312 31.398438 -23.722656 C 31.328125 -24.066406 18.742188 -24.273438 18.535156 -23.996094 C 18.464844 -23.929688 17.84375 -23.929688 17.082031 -23.996094 L 15.699219 -24.207031 L 16.945312 -24.964844 C 17.566406 -25.382812 18.1875 -25.796875 18.257812 -25.796875 C 18.394531 -25.796875 19.503906 -26.554688 20.402344 -27.316406 C 20.816406 -27.59375 21.507812 -28.078125 22.0625 -28.425781 C 24.757812 -30.082031 26.832031 -31.535156 27.179688 -31.949219 C 27.386719 -32.226562 27.457031 -32.503906 27.457031 -32.640625 C 27.386719 -32.78125 27.523438 -32.917969 27.730469 -32.917969 C 27.871094 -32.917969 28.425781 -33.195312 28.90625 -33.472656 C 29.808594 -34.027344 33.335938 -36.792969 34.09375 -37.484375 C 34.234375 -37.621094 34.785156 -38.105469 35.269531 -38.453125 C 35.894531 -38.867188 36.101562 -39.144531 35.894531 -39.28125 C 35.683594 -39.417969 35.753906 -39.488281 36.03125 -39.835938 C 36.445312 -40.179688 36.445312 -40.179688 36.308594 -39.835938 C 36.101562 -39.210938 36.445312 -39.351562 37.691406 -40.59375 C 38.382812 -41.21875 39.765625 -42.394531 40.734375 -43.222656 C 42.1875 -44.398438 42.53125 -44.8125 42.394531 -45.023438 C 42.046875 -45.4375 41.980469 -45.4375 40.871094 -44.398438 C 40.386719 -43.914062 39.417969 -43.015625 38.796875 -42.53125 C 38.105469 -41.980469 37.207031 -41.148438 36.722656 -40.734375 C 36.238281 -40.320312 35.476562 -39.695312 34.992188 -39.417969 C 34.507812 -39.074219 33.816406 -38.519531 33.472656 -38.175781 C 32.296875 -37 29.597656 -34.925781 26.347656 -32.640625 C 24.480469 -31.328125 22.683594 -30.015625 22.199219 -29.667969 C 21.371094 -28.976562 14.59375 -24.6875 13.625 -24.136719 C 13 -23.859375 12.242188 -23.789062 12.242188 -24.066406 C 12.242188 -24.136719 12.378906 -24.480469 12.515625 -24.6875 C 12.726562 -24.964844 12.792969 -25.242188 12.65625 -25.242188 C 12.585938 -25.242188 12.585938 -25.519531 12.792969 -25.863281 C 13 -26.28125 13.554688 -26.765625 14.316406 -27.109375 C 15.007812 -27.457031 15.628906 -27.800781 15.699219 -28.007812 C 15.835938 -28.148438 16.460938 -28.5625 17.152344 -28.90625 C 18.949219 -29.945312 21.714844 -31.8125 24.480469 -33.886719 C 26.902344 -35.683594 27.457031 -36.03125 27.800781 -36.03125 C 27.941406 -36.03125 28.078125 -36.167969 28.078125 -36.378906 C 28.078125 -36.515625 28.492188 -36.929688 28.976562 -37.277344 C 30.015625 -37.96875 30.429688 -38.3125 31.257812 -39.074219 C 31.535156 -39.351562 31.882812 -39.488281 31.949219 -39.417969 C 32.089844 -39.351562 32.160156 -39.417969 32.160156 -39.558594 C 32.160156 -39.765625 32.78125 -40.386719 33.542969 -41.011719 C 35.476562 -42.601562 36.238281 -43.429688 35.894531 -43.636719 C 35.683594 -43.777344 35.753906 -43.914062 36.167969 -44.191406 L 36.792969 -44.605469 L 36.445312 -44.191406 C 36.167969 -43.847656 36.101562 -43.636719 36.238281 -43.570312 C 36.445312 -43.429688 38.105469 -44.746094 39.488281 -46.058594 C 40.734375 -47.304688 42.460938 -48.824219 43.363281 -49.585938 C 45.296875 -51.175781 51.109375 -57.054688 53.113281 -59.542969 C 53.457031 -59.960938 53.667969 -60.445312 53.597656 -60.582031 C 53.527344 -60.789062 53.667969 -60.859375 53.941406 -60.859375 C 54.152344 -60.859375 54.425781 -61.066406 54.703125 -61.34375 C 55.1875 -61.894531 55.671875 -61.894531 55.464844 -61.34375 C 55.394531 -61.066406 55.464844 -61.066406 55.808594 -61.480469 C 56.085938 -61.757812 56.226562 -62.035156 56.15625 -62.171875 C 56.085938 -62.3125 56.15625 -62.449219 56.292969 -62.449219 C 56.433594 -62.378906 56.777344 -62.65625 57.054688 -62.863281 C 58.300781 -64.039062 57.125 -61.828125 55.601562 -59.960938 C 55.050781 -59.335938 54.152344 -58.09375 53.597656 -57.261719 C 52.699219 -55.808594 48.6875 -51.589844 44.121094 -47.234375 C 42.601562 -45.78125 42.394531 -45.574219 42.945312 -45.503906 C 43.15625 -45.503906 43.292969 -45.644531 43.292969 -45.714844 C 43.292969 -45.78125 43.636719 -46.128906 44.054688 -46.40625 C 45.230469 -47.097656 56.433594 -58.578125 56.433594 -58.921875 C 56.433594 -59.128906 56.5 -59.269531 56.640625 -59.269531 C 56.710938 -59.269531 57.402344 -60.027344 58.160156 -60.996094 C 58.851562 -61.894531 59.753906 -63.003906 60.097656 -63.417969 C 62.726562 -66.460938 67.222656 -74.828125 68.050781 -78.355469 C 68.535156 -80.5 68.535156 -81.054688 68.050781 -81.328125 Z M 31.398438 -71.164062 L 31.121094 -70.609375 L 31.121094 -71.164062 C 31.121094 -71.507812 31.257812 -71.785156 31.464844 -71.855469 C 31.605469 -71.925781 31.742188 -71.925781 31.742188 -71.855469 C 31.742188 -71.714844 31.605469 -71.441406 31.398438 -71.164062 Z M 2.488281 -15.835938 C 2.558594 -16.113281 2.695312 -16.253906 2.765625 -16.253906 C 2.90625 -16.253906 2.90625 -16.113281 2.765625 -15.835938 C 2.628906 -15.628906 2.488281 -15.421875 2.421875 -15.421875 C 2.421875 -15.421875 2.421875 -15.628906 2.488281 -15.835938 Z M 2.074219 -14.730469 C 2.214844 -14.9375 2.28125 -15.007812 2.28125 -14.867188 C 2.28125 -14.730469 2.214844 -14.453125 2.074219 -14.316406 C 2.003906 -14.109375 1.867188 -14.039062 1.867188 -14.175781 C 1.867188 -14.316406 2.003906 -14.59375 2.074219 -14.730469 Z M 3.320312 -7.539062 C 3.042969 -6.570312 2.695312 -5.324219 2.628906 -4.703125 C 2.558594 -4.148438 2.351562 -3.527344 2.144531 -3.390625 C 1.867188 -3.113281 1.867188 -3.179688 2.003906 -3.734375 C 2.351562 -5.394531 3.179688 -8.089844 3.597656 -9.128906 C 3.597656 -9.265625 3.734375 -9.40625 3.804688 -9.335938 C 3.804688 -9.265625 3.664062 -8.4375 3.320312 -7.539062 Z M 4.773438 -11.824219 C 4.632812 -11.410156 4.425781 -10.925781 4.355469 -10.789062 C 3.941406 -10.441406 4.289062 -11.824219 4.703125 -12.242188 C 4.980469 -12.515625 4.980469 -12.449219 4.773438 -11.824219 Z M 1.246094 -2.90625 C 1.246094 -2.144531 0.898438 -2.003906 0.484375 -2.488281 C 0.207031 -2.835938 0.207031 -3.25 0.347656 -4.910156 C 0.484375 -7.398438 0.828125 -8.574219 1.246094 -8.367188 C 1.382812 -8.300781 1.519531 -8.367188 1.519531 -8.507812 C 1.519531 -8.644531 1.660156 -8.714844 1.730469 -8.644531 C 1.867188 -8.574219 1.9375 -8.78125 1.9375 -9.128906 C 1.9375 -9.476562 2.003906 -10.027344 2.074219 -10.375 C 2.214844 -10.789062 2.144531 -10.925781 2.003906 -10.859375 C 1.9375 -10.789062 1.796875 -10.511719 1.796875 -10.234375 C 1.796875 -9.957031 1.660156 -9.542969 1.453125 -9.40625 C 1.039062 -9.058594 1.039062 -9.058594 1.519531 -10.511719 C 1.867188 -11.824219 2.28125 -12.449219 2.28125 -11.757812 C 2.28125 -11.34375 2.28125 -11.34375 2.558594 -11.6875 C 2.695312 -11.894531 2.90625 -12.035156 3.042969 -12.035156 C 3.179688 -12.035156 3.320312 -12.378906 3.390625 -12.792969 C 3.871094 -15.214844 3.871094 -15.144531 3.113281 -13.761719 C 2.214844 -12.035156 2.074219 -12.378906 2.835938 -14.316406 C 3.179688 -15.078125 3.527344 -16.042969 3.734375 -16.460938 C 3.871094 -16.945312 4.148438 -17.289062 4.425781 -17.289062 C 4.703125 -17.359375 5.257812 -17.636719 5.738281 -17.910156 C 6.292969 -18.257812 6.640625 -18.328125 6.570312 -18.1875 C 6.433594 -18.050781 5.878906 -16.597656 5.1875 -15.007812 C 3.25 -10.648438 1.246094 -4.5625 1.246094 -2.90625 Z M 6.015625 -14.453125 C 5.1875 -12.792969 4.910156 -12.515625 5.1875 -13.484375 C 5.394531 -14.386719 5.878906 -15.351562 6.15625 -15.351562 C 6.292969 -15.351562 6.292969 -15.492188 6.222656 -15.699219 C 6.15625 -16.042969 6.222656 -16.113281 6.433594 -16.113281 C 6.847656 -16.113281 6.914062 -16.253906 6.015625 -14.453125 Z M 7.46875 -17.636719 C 7.332031 -17.566406 7.261719 -17.703125 7.261719 -17.980469 C 7.332031 -18.464844 7.675781 -18.601562 7.675781 -18.121094 C 7.675781 -17.910156 7.539062 -17.703125 7.46875 -17.636719 Z M 8.992188 -23.511719 C 8.921875 -23.511719 8.851562 -23.582031 8.851562 -23.722656 C 8.851562 -23.859375 8.921875 -23.929688 9.058594 -23.929688 C 9.128906 -23.929688 9.265625 -23.859375 9.265625 -23.722656 C 9.265625 -23.582031 9.128906 -23.511719 8.992188 -23.511719 Z M 51.246094 -22.199219 C 51.660156 -22.199219 52.558594 -22.199219 53.113281 -22.128906 C 53.667969 -22.0625 53.25 -22.0625 52.214844 -22.0625 C 51.175781 -22.0625 50.691406 -22.128906 51.246094 -22.199219 Z M 48.066406 -21.992188 C 48.410156 -22.0625 49.101562 -22.0625 49.515625 -21.992188 C 49.933594 -21.921875 49.65625 -21.855469 48.824219 -21.921875 C 47.996094 -21.921875 47.648438 -21.992188 48.066406 -21.992188 Z M 45.714844 -21.855469 C 45.988281 -21.855469 46.40625 -21.855469 46.679688 -21.785156 C 46.890625 -21.785156 46.679688 -21.714844 46.199219 -21.714844 C 45.644531 -21.714844 45.4375 -21.785156 45.714844 -21.855469 Z M 40.941406 -21.644531 C 41.148438 -21.855469 44.953125 -21.714844 45.089844 -21.578125 C 45.160156 -21.507812 44.191406 -21.507812 43.015625 -21.507812 C 41.769531 -21.507812 40.871094 -21.644531 40.941406 -21.644531 Z M 26.488281 -32.296875 C 26.625 -32.503906 26.765625 -32.503906 26.832031 -32.433594 C 26.902344 -32.367188 26.765625 -32.296875 26.554688 -32.160156 C 26.28125 -32.089844 26.28125 -32.089844 26.488281 -32.296875 Z M 25.242188 -31.328125 C 25.382812 -31.464844 25.519531 -31.675781 25.589844 -31.605469 C 25.65625 -31.605469 25.589844 -31.464844 25.449219 -31.328125 C 25.3125 -31.121094 25.171875 -30.984375 25.105469 -30.984375 C 25.035156 -30.984375 25.105469 -31.121094 25.242188 -31.328125 Z M 24.480469 -50.898438 C 24.136719 -50.484375 24.136719 -50.484375 24.34375 -51.039062 C 24.6875 -51.730469 24.828125 -51.800781 24.828125 -51.523438 C 24.828125 -51.382812 24.621094 -51.109375 24.480469 -50.898438 Z M 21.644531 -47.234375 C 21.714844 -47.441406 21.855469 -47.71875 21.855469 -47.855469 C 21.921875 -48.066406 22.890625 -50.140625 23.511719 -51.246094 C 23.722656 -51.660156 24.273438 -52.765625 24.621094 -53.597656 C 25.035156 -54.425781 25.449219 -55.257812 25.519531 -55.464844 C 26.003906 -56.15625 27.523438 -59.40625 27.523438 -59.613281 C 27.523438 -59.753906 27.59375 -59.890625 27.730469 -59.960938 C 28.214844 -60.304688 27.457031 -58.507812 24.066406 -51.523438 C 22.753906 -48.964844 21.644531 -46.820312 21.644531 -46.820312 C 21.578125 -46.820312 21.578125 -47.027344 21.644531 -47.234375 Z M 19.710938 -43.429688 C 20.195312 -44.191406 20.816406 -45.574219 20.746094 -45.78125 C 20.679688 -45.851562 20.886719 -46.058594 21.09375 -46.199219 C 21.507812 -46.40625 21.507812 -46.40625 21.023438 -45.296875 C 20.402344 -43.984375 18.949219 -41.21875 18.328125 -40.042969 C 17.980469 -39.488281 17.566406 -39.144531 17.566406 -39.417969 C 17.566406 -39.628906 19.296875 -42.808594 19.710938 -43.429688 Z M 16.183594 -36.515625 C 16.460938 -36.929688 16.734375 -37.550781 16.804688 -37.898438 C 16.945312 -38.519531 17.359375 -38.9375 17.359375 -38.453125 C 17.359375 -37.96875 17.773438 -38.3125 18.328125 -39.210938 C 18.601562 -39.695312 19.019531 -40.386719 19.296875 -40.664062 C 19.777344 -41.289062 18.121094 -37.96875 17.011719 -36.101562 C 16.113281 -34.578125 16.042969 -34.578125 15.835938 -35.203125 C 15.699219 -35.617188 15.769531 -35.894531 16.183594 -36.515625 Z M 12.726562 -28.285156 C 12.171875 -27.386719 11.410156 -26.832031 11.410156 -27.25 C 11.410156 -27.664062 12.308594 -29.253906 12.65625 -29.324219 C 12.792969 -29.390625 12.863281 -29.597656 12.792969 -29.808594 C 12.726562 -30.152344 13.554688 -31.605469 14.109375 -31.882812 C 14.386719 -32.019531 14.453125 -32.226562 14.386719 -32.503906 C 14.316406 -32.710938 14.453125 -33.058594 14.59375 -33.335938 C 14.9375 -33.75 14.9375 -33.75 14.800781 -33.265625 C 14.660156 -32.574219 15.007812 -32.574219 15.285156 -33.265625 C 15.421875 -33.609375 15.699219 -33.816406 15.769531 -33.816406 C 15.90625 -33.816406 15.976562 -33.75 15.976562 -33.679688 C 15.835938 -33.335938 13.277344 -29.046875 12.726562 -28.285156 Z M 32.710938 -41.078125 C 32.640625 -40.941406 32.503906 -40.871094 32.367188 -40.871094 C 32.089844 -40.871094 32.160156 -41.011719 32.503906 -41.148438 C 32.710938 -41.21875 32.78125 -41.148438 32.710938 -41.078125 Z M 34.300781 -42.460938 C 34.164062 -42.253906 33.816406 -42.046875 33.609375 -41.910156 C 33.195312 -41.703125 33.195312 -41.703125 33.679688 -42.253906 C 34.234375 -42.878906 34.785156 -43.015625 34.300781 -42.460938 Z M 38.105469 -45.574219 C 37.550781 -45.089844 37.550781 -45.089844 37.828125 -45.574219 C 38.035156 -45.988281 38.660156 -46.40625 38.660156 -46.199219 C 38.660156 -46.199219 38.382812 -45.921875 38.105469 -45.574219 Z M 39.28125 -46.542969 C 38.796875 -46.199219 38.726562 -46.40625 39.144531 -46.890625 C 39.488281 -47.164062 39.695312 -47.234375 39.695312 -47.027344 C 39.695312 -46.890625 39.488281 -46.679688 39.28125 -46.542969 Z M 18.050781 -44.398438 C 17.910156 -44.054688 17.980469 -43.847656 18.050781 -43.847656 C 18.257812 -43.777344 18.535156 -44.539062 18.535156 -45.089844 C 18.535156 -45.574219 18.1875 -45.089844 18.050781 -44.398438 Z M 23.582031 -32.574219 C 23.097656 -32.089844 23.03125 -31.882812 23.304688 -31.605469 C 23.445312 -31.464844 24.414062 -32.503906 24.414062 -32.851562 C 24.414062 -33.125 23.996094 -32.988281 23.582031 -32.574219 Z M 23.582031 -32.574219 "/></g></g></g><g fill="#4c4556" fill-opacity="1"><g transform="translate(156.726894, 105.774054)"><g><path d="M 15.492188 -52.421875 C 14.039062 -50.347656 10.304688 -44.398438 10.304688 -44.121094 C 10.304688 -44.054688 10.441406 -43.984375 10.582031 -43.984375 C 10.648438 -43.984375 11.480469 -45.160156 12.308594 -46.613281 C 15.421875 -52.007812 20.953125 -59.335938 25.3125 -63.902344 C 25.863281 -64.453125 26.210938 -64.9375 26.074219 -65.007812 C 25.589844 -65.355469 19.226562 -57.886719 15.492188 -52.421875 Z M 38.9375 -83.886719 C 39.003906 -83.820312 39.628906 -84.234375 40.457031 -84.855469 L 41.839844 -85.894531 L 41.011719 -84.996094 C 40.59375 -84.511719 40.113281 -84.164062 40.042969 -84.164062 C 39.902344 -84.164062 39.765625 -84.027344 39.765625 -83.820312 C 39.765625 -83.679688 39.628906 -83.472656 39.558594 -83.542969 C 39.28125 -83.542969 35.960938 -80.84375 35.960938 -80.570312 C 35.960938 -80.429688 36.378906 -80.777344 37 -81.191406 C 38.035156 -82.019531 38.3125 -82.230469 38.3125 -81.882812 C 38.3125 -81.882812 36.652344 -80.429688 34.71875 -78.769531 C 32.710938 -77.109375 29.667969 -74.414062 27.871094 -72.753906 C 26.074219 -71.09375 24.480469 -69.78125 24.34375 -69.847656 C 24.207031 -69.847656 23.929688 -69.710938 23.789062 -69.503906 C 23.582031 -69.15625 23.582031 -69.019531 23.859375 -69.019531 C 24.207031 -69.019531 24.550781 -68.605469 24.34375 -68.398438 C 24.273438 -68.328125 24.066406 -68.398438 23.859375 -68.535156 C 23.652344 -68.8125 23.511719 -68.742188 23.445312 -68.464844 C 23.304688 -68.328125 23.304688 -68.050781 23.375 -67.914062 C 23.445312 -67.707031 23.375 -67.707031 23.167969 -67.84375 C 22.820312 -67.980469 22.753906 -67.914062 22.820312 -67.707031 C 22.890625 -67.496094 22.820312 -67.359375 22.683594 -67.429688 C 22.339844 -67.566406 20.746094 -65.769531 20.953125 -65.421875 C 20.953125 -65.355469 20.746094 -64.9375 20.46875 -64.523438 C 17.289062 -60.582031 13.347656 -55.394531 12.65625 -54.359375 C 10.996094 -51.867188 6.777344 -44.746094 5.464844 -42.253906 C 2.628906 -36.859375 0.96875 -32.640625 -0.207031 -28.425781 L -0.621094 -26.902344 L -0.347656 -28.632812 C -0.136719 -30.429688 0.621094 -33.195312 1.453125 -35.203125 C 2.214844 -37 5.738281 -44.332031 6.984375 -46.40625 C 8.089844 -48.410156 8.300781 -49.03125 7.882812 -49.03125 C 7.46875 -49.03125 2.558594 -39.488281 1.039062 -35.683594 C -0.828125 -31.121094 -1.660156 -25.933594 -0.828125 -24.6875 C -0.554688 -24.34375 -0.347656 -23.722656 -0.207031 -23.445312 C 0 -22.613281 0.277344 -22.199219 1.519531 -21.300781 C 3.390625 -19.847656 5.949219 -19.433594 8.644531 -20.195312 C 9.613281 -20.402344 12.863281 -22.0625 14.386719 -23.097656 C 14.800781 -23.375 14.800781 -23.445312 14.523438 -23.652344 C 14.175781 -23.859375 15.90625 -25.382812 19.988281 -28.355469 C 20.953125 -29.117188 21.855469 -29.875 21.921875 -30.152344 C 22.0625 -30.429688 22.269531 -30.636719 22.40625 -30.636719 C 22.613281 -30.636719 22.753906 -30.773438 22.753906 -30.84375 C 22.753906 -30.984375 23.304688 -31.605469 24.066406 -32.160156 C 24.757812 -32.78125 26.832031 -34.71875 28.699219 -36.445312 C 30.566406 -38.246094 32.160156 -39.765625 32.367188 -39.835938 C 32.503906 -39.972656 33.265625 -40.734375 34.027344 -41.5625 C 36.101562 -43.707031 41.011719 -48.617188 43.777344 -51.316406 C 44.746094 -52.214844 46.75 -54.082031 48.203125 -55.535156 C 49.792969 -56.984375 51.109375 -58.230469 51.175781 -58.367188 C 51.246094 -58.4375 52.628906 -59.753906 54.152344 -61.273438 C 55.671875 -62.796875 57.46875 -64.59375 58.160156 -65.285156 C 58.785156 -65.976562 59.335938 -66.53125 59.40625 -66.53125 C 59.40625 -66.460938 59.335938 -65.976562 59.199219 -65.355469 C 58.992188 -64.800781 58.644531 -63.003906 58.367188 -61.550781 C 57.539062 -56.847656 54.496094 -45.230469 53.113281 -41.425781 C 52.765625 -40.59375 52.492188 -39.695312 52.351562 -39.417969 C 52.144531 -38.796875 51.867188 -38.589844 48.617188 -37.070312 C 45.714844 -35.753906 42.460938 -33.886719 38.726562 -31.605469 C 37.550781 -30.914062 36.101562 -29.945312 35.410156 -29.53125 C 33.542969 -28.425781 31.121094 -26.554688 28.355469 -24.207031 C 21.507812 -18.394531 15.835938 -11.132812 13.210938 -4.910156 C 12.449219 -3.113281 12.308594 -2.488281 12.449219 -2.074219 C 12.515625 -1.730469 12.726562 -1.382812 12.863281 -1.3125 C 13 -1.246094 13.070312 -0.96875 13.070312 -0.691406 C 13.070312 -0.484375 13.210938 0.207031 13.484375 0.761719 C 13.832031 1.660156 14.109375 1.9375 15.351562 2.558594 C 16.183594 2.972656 17.21875 3.457031 17.703125 3.527344 C 20.46875 4.21875 25.382812 2.351562 30.292969 -1.246094 C 33.679688 -3.734375 37.96875 -7.675781 39.765625 -10.097656 C 40.25 -10.789062 40.804688 -11.410156 41.011719 -11.550781 C 41.289062 -11.6875 41.910156 -12.515625 42.460938 -13.417969 C 43.015625 -14.246094 43.570312 -14.9375 43.636719 -14.9375 C 43.847656 -14.9375 45.296875 -16.945312 45.296875 -17.21875 C 45.296875 -17.289062 45.574219 -17.636719 45.851562 -17.84375 C 46.472656 -18.394531 49.933594 -24.136719 51.660156 -27.59375 C 53.042969 -30.152344 54.425781 -33.402344 54.980469 -35.132812 L 55.328125 -36.308594 L 58.230469 -37.621094 C 59.820312 -38.382812 61.34375 -39.074219 61.757812 -39.210938 C 62.105469 -39.28125 63.003906 -39.765625 63.695312 -40.113281 C 64.316406 -40.457031 65.421875 -40.871094 66.113281 -41.011719 C 66.945312 -41.148438 67.429688 -41.355469 67.496094 -41.632812 C 67.566406 -41.769531 67.496094 -41.980469 67.359375 -41.980469 C 67.222656 -41.980469 67.082031 -42.253906 67.082031 -42.601562 C 67.015625 -43.429688 66.253906 -43.847656 64.800781 -43.777344 C 64.179688 -43.777344 63.417969 -43.570312 63.003906 -43.363281 C 62.449219 -43.015625 59.40625 -41.839844 59.128906 -41.839844 C 59.0625 -41.839844 59.199219 -41.980469 59.476562 -42.1875 C 59.890625 -42.460938 59.890625 -42.460938 59.335938 -42.324219 C 59.0625 -42.324219 58.507812 -42.117188 58.160156 -41.980469 C 57.816406 -41.839844 57.46875 -41.703125 57.402344 -41.703125 C 57.332031 -41.703125 57.539062 -42.53125 57.816406 -43.5 C 58.785156 -46.679688 61.273438 -55.878906 61.621094 -57.46875 C 62.378906 -60.996094 63.347656 -64.664062 64.59375 -68.671875 C 65.421875 -71.441406 65.355469 -71.234375 65.421875 -72.546875 C 65.421875 -73.308594 65.355469 -73.515625 65.078125 -73.445312 C 64.386719 -73.238281 64.109375 -73.582031 64.246094 -74.34375 C 64.453125 -75.175781 64.523438 -75.105469 62.726562 -75.3125 C 62.035156 -75.382812 61.894531 -75.382812 61.894531 -75.105469 C 61.964844 -74.757812 60.375 -72.890625 59.613281 -72.269531 C 59.542969 -72.269531 58.785156 -71.441406 57.953125 -70.539062 C 57.054688 -69.640625 55.671875 -68.191406 54.910156 -67.429688 C 52.421875 -65.007812 51.730469 -64.179688 51.660156 -63.554688 C 51.523438 -62.726562 51.523438 -62.726562 51.316406 -63.070312 C 51.109375 -63.347656 50.832031 -63.140625 49.65625 -62.105469 C 47.441406 -60.027344 45.988281 -58.507812 45.988281 -58.300781 C 45.921875 -58.023438 43.5 -55.671875 41.011719 -53.527344 C 39.972656 -52.628906 39.144531 -51.800781 39.144531 -51.730469 C 39.144531 -51.589844 38.796875 -51.316406 38.453125 -51.109375 C 37.691406 -50.554688 35.339844 -48.339844 34.164062 -47.027344 C 33.75 -46.613281 32.296875 -45.230469 30.84375 -43.984375 C 29.460938 -42.671875 27.316406 -40.734375 26.140625 -39.628906 C 22.890625 -36.515625 14.867188 -29.808594 14.523438 -29.808594 C 14.175781 -29.875 13.761719 -29.597656 10.167969 -27.25 C 7.816406 -25.726562 4.289062 -24.066406 2.972656 -23.996094 C 2.28125 -23.996094 2.214844 -23.996094 2.144531 -24.621094 C 1.867188 -26.210938 3.320312 -31.328125 4.839844 -34.300781 C 5.324219 -35.269531 5.671875 -36.167969 5.671875 -36.378906 C 5.601562 -36.652344 5.671875 -36.792969 5.878906 -36.792969 C 6.015625 -36.792969 6.433594 -37.414062 6.707031 -38.246094 C 7.332031 -39.628906 7.746094 -40.386719 11.34375 -46.613281 C 12.378906 -48.410156 13.210938 -49.933594 13.210938 -50 C 13.210938 -50.140625 13.277344 -50.277344 13.417969 -50.207031 C 13.554688 -50.207031 13.96875 -50.691406 14.316406 -51.316406 C 17.082031 -55.878906 25.726562 -65.90625 31.121094 -70.816406 C 32.089844 -71.648438 32.917969 -72.40625 32.917969 -72.476562 C 32.917969 -72.890625 42.878906 -80.984375 44.953125 -82.230469 C 49.585938 -85.132812 51.175781 -85.964844 53.941406 -86.585938 C 56.226562 -87.070312 56.226562 -87.070312 56.15625 -85.753906 C 55.949219 -82.574219 52.074219 -75.105469 48.617188 -71.09375 C 47.511719 -69.847656 46.613281 -68.671875 46.679688 -68.464844 C 46.679688 -68.328125 46.890625 -68.121094 47.164062 -68.050781 C 47.375 -67.914062 47.582031 -67.707031 47.582031 -67.429688 C 47.511719 -67.082031 47.855469 -66.804688 48.824219 -66.253906 L 50.070312 -65.5625 L 51.175781 -66.324219 C 51.730469 -66.738281 52.492188 -67.152344 52.835938 -67.152344 C 53.183594 -67.222656 53.597656 -67.496094 53.734375 -67.707031 C 53.875 -67.914062 54.21875 -68.257812 54.425781 -68.464844 C 55.464844 -69.433594 59.128906 -76.351562 60.097656 -79.253906 C 60.582031 -80.570312 60.652344 -81.328125 60.652344 -82.710938 C 60.652344 -85.546875 60.445312 -86.101562 58.644531 -88.039062 C 56.710938 -90.113281 55.742188 -90.664062 53.804688 -90.804688 C 52.214844 -90.875 50.070312 -90.664062 50 -90.390625 C 50 -90.113281 48.410156 -89.558594 47.582031 -89.558594 C 46.820312 -89.558594 45.367188 -88.730469 42.601562 -86.792969 C 40.179688 -85.132812 38.796875 -84.027344 38.9375 -83.886719 Z M 30.5 -25.035156 C 32.367188 -26.695312 36.308594 -29.460938 36.445312 -29.324219 C 36.515625 -29.253906 35.824219 -28.769531 34.992188 -28.148438 C 34.09375 -27.59375 32.296875 -26.28125 30.984375 -25.242188 L 28.5625 -23.375 Z M 26.625 -21.785156 C 26.902344 -21.992188 27.109375 -22.199219 27.179688 -22.199219 C 27.25 -22.199219 27.109375 -21.992188 26.832031 -21.785156 C 26.625 -21.507812 26.347656 -21.300781 26.28125 -21.371094 C 26.28125 -21.371094 26.417969 -21.578125 26.625 -21.785156 Z M 20.195312 2.074219 C 19.710938 2.351562 18.1875 2.488281 18.464844 2.28125 C 18.601562 2.144531 19.15625 2.074219 19.640625 2.003906 C 20.261719 1.9375 20.402344 2.003906 20.195312 2.074219 Z M 28.492188 -4.21875 C 28.078125 -3.871094 27.664062 -3.597656 27.523438 -3.597656 C 27.457031 -3.597656 27.664062 -3.871094 28.007812 -4.21875 C 28.425781 -4.5625 28.839844 -4.839844 28.976562 -4.839844 C 29.046875 -4.773438 28.90625 -4.5625 28.492188 -4.21875 Z M 30.152344 -2.695312 C 29.945312 -2.488281 29.53125 -2.214844 29.253906 -2.074219 C 28.839844 -1.867188 28.839844 -1.9375 29.117188 -2.28125 C 29.324219 -2.421875 29.738281 -2.695312 30.015625 -2.835938 C 30.429688 -2.972656 30.429688 -2.972656 30.152344 -2.695312 Z M 33.335938 -4.5625 C 32.296875 -3.734375 31.328125 -2.972656 31.121094 -2.835938 C 30.636719 -2.628906 30.707031 -3.179688 31.191406 -3.664062 C 31.535156 -4.082031 31.535156 -4.082031 31.398438 -3.664062 C 31.257812 -3.320312 31.257812 -3.25 31.605469 -3.527344 C 31.8125 -3.664062 32.089844 -4.082031 32.160156 -4.355469 C 32.367188 -4.980469 32.851562 -5.324219 33.265625 -5.046875 C 33.335938 -4.980469 33.472656 -5.046875 33.402344 -5.117188 C 33.335938 -5.53125 34.578125 -7.125 35.0625 -7.332031 C 35.410156 -7.398438 35.894531 -7.746094 36.167969 -8.089844 C 36.445312 -8.507812 36.929688 -8.851562 37.277344 -8.921875 C 37.550781 -9.058594 37.898438 -9.335938 37.96875 -9.683594 C 38.105469 -9.957031 38.246094 -10.234375 38.382812 -10.167969 C 38.519531 -10.167969 38.589844 -10.304688 38.589844 -10.511719 C 38.589844 -10.648438 38.726562 -10.859375 38.867188 -10.789062 C 39.144531 -10.789062 40.386719 -12.035156 40.457031 -12.378906 C 40.457031 -12.933594 41.148438 -13.691406 41.703125 -13.902344 C 41.980469 -14.039062 42.253906 -14.316406 42.253906 -14.453125 C 42.253906 -14.660156 42.394531 -14.800781 42.53125 -14.800781 C 43.363281 -14.730469 36.652344 -7.261719 33.335938 -4.5625 Z M 35.476562 -9.683594 C 35.546875 -9.683594 35.476562 -9.542969 35.410156 -9.40625 C 35.339844 -9.199219 35.132812 -9.058594 35.0625 -9.058594 C 34.925781 -9.058594 34.925781 -9.199219 35.0625 -9.40625 C 35.269531 -9.542969 35.410156 -9.683594 35.476562 -9.683594 Z M 35.683594 -11.824219 C 36.03125 -12.171875 36.167969 -12.171875 36.167969 -11.894531 C 36.167969 -11.824219 35.960938 -11.6875 35.753906 -11.617188 C 35.476562 -11.480469 35.476562 -11.550781 35.683594 -11.824219 Z M 34.785156 -10.511719 C 34.507812 -10.167969 33.886719 -9.613281 33.472656 -9.265625 L 32.710938 -8.644531 L 33.472656 -9.542969 C 33.816406 -9.957031 34.441406 -10.511719 34.785156 -10.71875 L 35.269531 -11.132812 Z M 34.09375 -8.023438 C 33.957031 -7.816406 33.75 -7.605469 33.609375 -7.605469 C 33.472656 -7.605469 33.542969 -7.816406 33.679688 -8.023438 C 33.886719 -8.300781 34.09375 -8.4375 34.164062 -8.4375 C 34.300781 -8.4375 34.234375 -8.230469 34.09375 -8.023438 Z M 39.417969 -16.253906 C 39.628906 -16.527344 39.835938 -16.667969 39.902344 -16.597656 C 39.902344 -16.527344 39.765625 -16.320312 39.558594 -16.113281 C 39.144531 -15.835938 39.144531 -15.835938 39.417969 -16.253906 Z M 41.078125 -17.21875 C 41.21875 -17.359375 41.425781 -17.496094 41.496094 -17.496094 C 41.5625 -17.496094 41.496094 -17.359375 41.289062 -17.21875 C 41.148438 -17.011719 40.941406 -16.875 40.871094 -16.875 C 40.804688 -16.875 40.941406 -17.011719 41.078125 -17.21875 Z M 44.398438 -20.816406 C 44.46875 -20.746094 44.261719 -20.261719 43.984375 -19.777344 C 43.5 -19.019531 43.222656 -18.742188 43.222656 -19.085938 C 43.292969 -19.363281 44.332031 -20.886719 44.398438 -20.816406 Z M 44.332031 -21.855469 L 44.746094 -22.546875 C 45.089844 -23.238281 45.367188 -23.445312 45.367188 -23.097656 C 45.296875 -22.960938 45.089844 -22.683594 44.8125 -22.40625 Z M 43.570312 -20.402344 C 43.15625 -19.710938 42.738281 -19.226562 42.671875 -19.226562 C 42.53125 -19.226562 42.53125 -19.226562 43.429688 -20.679688 C 43.777344 -21.300781 44.191406 -21.785156 44.261719 -21.714844 C 44.261719 -21.644531 43.984375 -21.09375 43.570312 -20.402344 Z M 44.261719 -16.945312 C 43.085938 -15.144531 42.601562 -14.59375 42.945312 -15.421875 C 43.015625 -15.769531 43.222656 -15.976562 43.292969 -16.042969 C 43.429688 -16.042969 43.5 -16.253906 43.570312 -16.390625 C 43.570312 -16.597656 43.707031 -16.734375 43.777344 -16.734375 C 43.914062 -16.734375 44.054688 -16.804688 43.984375 -16.945312 C 43.914062 -17.359375 44.8125 -18.601562 45.089844 -18.601562 C 45.230469 -18.601562 44.882812 -17.84375 44.261719 -16.945312 Z M 46.75 -20.609375 C 46.472656 -19.777344 46.40625 -19.710938 46.058594 -19.917969 C 45.851562 -20.125 45.78125 -20.125 45.851562 -19.988281 C 45.988281 -19.847656 45.988281 -19.570312 45.851562 -19.363281 C 45.714844 -19.019531 45.296875 -18.878906 45.296875 -19.15625 C 45.367188 -19.433594 46.472656 -21.507812 46.679688 -21.644531 C 47.097656 -21.921875 47.164062 -21.644531 46.75 -20.609375 Z M 46.957031 -23.929688 C 46.890625 -23.996094 46.472656 -23.582031 46.199219 -23.03125 C 45.574219 -21.992188 44.746094 -21.09375 44.746094 -21.300781 C 44.8125 -21.371094 45.296875 -22.199219 45.921875 -23.238281 C 46.542969 -24.207031 47.027344 -25.035156 47.097656 -25.105469 C 47.097656 -25.171875 47.234375 -25.382812 47.511719 -25.65625 L 47.855469 -26.074219 L 47.648438 -25.65625 C 47.582031 -25.382812 47.441406 -25.035156 47.441406 -24.828125 C 47.441406 -24.621094 47.375 -24.480469 47.234375 -24.550781 C 47.097656 -24.621094 47.027344 -24.621094 47.027344 -24.480469 C 47.027344 -24.34375 47.097656 -24.207031 47.234375 -24.207031 C 47.375 -24.207031 47.441406 -24.136719 47.304688 -23.996094 C 47.234375 -23.859375 47.097656 -23.859375 46.957031 -23.929688 Z M 45.644531 -24.066406 C 45.644531 -24.207031 45.78125 -24.34375 45.851562 -24.414062 C 45.988281 -24.480469 46.128906 -24.414062 46.058594 -24.34375 C 46.058594 -24.207031 45.988281 -24.066406 45.851562 -23.996094 C 45.714844 -23.929688 45.644531 -23.929688 45.644531 -24.066406 Z M 48.480469 -23.789062 C 48.132812 -23.238281 47.71875 -22.546875 47.511719 -22.339844 C 47.164062 -21.921875 47.164062 -21.992188 47.304688 -22.683594 C 47.648438 -23.652344 47.996094 -24.207031 48.617188 -24.6875 C 49.242188 -25.171875 49.242188 -25.035156 48.480469 -23.789062 Z M 49.308594 -28.285156 C 49.171875 -28.148438 49.101562 -28.078125 49.101562 -28.214844 C 49.101562 -28.355469 49.242188 -28.5625 49.308594 -28.769531 C 49.515625 -28.90625 49.585938 -28.976562 49.585938 -28.839844 C 49.585938 -28.699219 49.449219 -28.492188 49.308594 -28.285156 Z M 42.601562 -20.886719 C 42.117188 -20.054688 41.5625 -19.085938 41.355469 -18.8125 C 41.21875 -18.464844 41.011719 -18.1875 40.871094 -18.1875 C 40.734375 -18.257812 40.734375 -18.121094 40.804688 -17.980469 C 40.871094 -17.84375 40.804688 -17.84375 40.59375 -17.910156 C 40.457031 -17.980469 39.835938 -17.429688 39.144531 -16.460938 C 38.453125 -15.628906 37.761719 -14.730469 37.484375 -14.523438 C 37.207031 -14.386719 37 -14.039062 37 -13.902344 C 37 -13.691406 36.859375 -13.625 36.792969 -13.625 C 36.722656 -13.625 36.445312 -13.347656 36.167969 -13 C 35.960938 -12.726562 34.925781 -11.617188 33.816406 -10.582031 C 32.296875 -8.992188 31.882812 -8.507812 32.019531 -8.089844 C 32.089844 -7.675781 32.019531 -7.675781 31.742188 -7.882812 C 31.535156 -8.160156 31.328125 -8.089844 30.707031 -7.539062 C 29.460938 -6.363281 22.128906 -1.796875 21.09375 -1.519531 C 20.886719 -1.453125 20.816406 -1.3125 20.886719 -1.246094 C 21.023438 -1.039062 23.511719 -1.730469 24.550781 -2.214844 C 24.964844 -2.421875 25.449219 -2.628906 25.65625 -2.628906 C 25.933594 -2.558594 25.933594 -2.488281 25.589844 -2.003906 C 25.105469 -1.453125 22.269531 -0.0703125 20.402344 0.414062 C 18.8125 0.828125 17.21875 0.898438 16.253906 0.621094 C 15.421875 0.347656 15.078125 0.0703125 15.628906 0.0703125 C 15.835938 0.136719 16.042969 0 16.113281 -0.136719 C 16.253906 -0.277344 16.113281 -0.347656 15.90625 -0.277344 C 15.214844 -0.207031 14.867188 -0.554688 14.9375 -1.246094 C 15.007812 -2.488281 17.011719 -6.5 18.328125 -8.089844 C 18.601562 -8.4375 19.296875 -9.40625 19.917969 -10.304688 C 21.578125 -12.65625 25.449219 -16.667969 29.046875 -19.710938 C 32.089844 -22.339844 36.722656 -25.933594 38.589844 -27.109375 C 39.144531 -27.386719 39.628906 -27.800781 39.765625 -27.941406 C 39.902344 -28.078125 40.113281 -28.214844 40.25 -28.214844 C 40.386719 -28.214844 41.078125 -28.632812 41.839844 -29.117188 C 43.847656 -30.5 49.933594 -33.816406 49.863281 -33.472656 C 49.863281 -32.640625 45.988281 -26.003906 42.601562 -20.886719 Z M 33.75 -25.796875 C 34.648438 -26.554688 35.476562 -27.179688 35.617188 -27.179688 C 35.683594 -27.179688 35.269531 -26.765625 34.578125 -26.28125 C 32.433594 -24.621094 32.019531 -24.414062 33.75 -25.796875 Z M 51.039062 -28.492188 C 50.898438 -28.214844 50.761719 -28.007812 50.625 -28.007812 C 50.554688 -28.007812 50.625 -28.214844 50.761719 -28.5625 C 51.109375 -29.183594 51.246094 -29.117188 51.039062 -28.492188 Z M 49.378906 -35.546875 C 45.921875 -33.886719 38.589844 -29.738281 35.824219 -27.871094 C 34.441406 -26.902344 32.367188 -25.382812 31.257812 -24.480469 C 30.152344 -23.582031 28.632812 -22.269531 27.800781 -21.578125 C 27.039062 -20.886719 26.488281 -20.539062 26.625 -20.746094 C 27.039062 -21.507812 33.125 -26.417969 35.960938 -28.355469 C 38.660156 -30.222656 43.636719 -33.125 47.441406 -34.992188 C 48.617188 -35.617188 50 -36.308594 50.484375 -36.585938 C 51.382812 -37 51.730469 -37.070312 51.660156 -36.792969 C 51.660156 -36.722656 50.691406 -36.167969 49.378906 -35.546875 Z M 53.804688 -34.648438 C 53.734375 -34.441406 53.597656 -34.441406 53.597656 -34.507812 C 53.597656 -34.648438 53.734375 -34.925781 53.875 -35.0625 C 54.011719 -35.269531 54.082031 -35.269531 54.082031 -35.203125 C 54.082031 -35.0625 53.941406 -34.855469 53.804688 -34.648438 Z M 55.742188 -43.570312 C 55.535156 -43.363281 55.535156 -43.363281 55.535156 -43.777344 C 55.535156 -44.054688 55.671875 -44.261719 55.808594 -44.261719 C 55.949219 -44.261719 56.019531 -44.191406 56.019531 -44.054688 C 56.019531 -43.984375 55.878906 -43.777344 55.742188 -43.570312 Z M 56.5 -46.058594 C 56.226562 -45.367188 56.15625 -45.230469 56.15625 -45.574219 C 56.15625 -46.265625 56.777344 -47.925781 56.847656 -47.511719 C 56.847656 -47.304688 56.710938 -46.679688 56.5 -46.058594 Z M 57.125 -48.066406 C 57.054688 -47.925781 56.984375 -47.996094 56.984375 -48.273438 C 56.984375 -48.480469 57.054688 -48.617188 57.125 -48.546875 C 57.195312 -48.410156 57.195312 -48.273438 57.125 -48.066406 Z M 64.246094 -42.394531 C 64.730469 -42.53125 66.597656 -42.53125 66.390625 -42.394531 C 66.390625 -42.324219 65.769531 -42.324219 65.078125 -42.253906 C 64.246094 -42.253906 63.972656 -42.253906 64.246094 -42.394531 Z M 52.351562 -62.378906 C 52.074219 -62.378906 52.074219 -62.519531 52.421875 -62.726562 C 52.558594 -62.796875 52.628906 -62.726562 52.628906 -62.585938 C 52.628906 -62.449219 52.492188 -62.378906 52.351562 -62.378906 Z M 52.492188 -64.109375 C 52.628906 -64.109375 52.699219 -64.109375 52.699219 -64.039062 C 52.699219 -63.972656 52.628906 -63.902344 52.492188 -63.761719 C 52.351562 -63.761719 52.214844 -63.761719 52.285156 -63.902344 C 52.285156 -64.039062 52.351562 -64.179688 52.492188 -64.109375 Z M 45.644531 -57.46875 C 45.78125 -57.46875 45.921875 -57.46875 45.921875 -57.402344 C 45.921875 -57.332031 45.78125 -57.261719 45.644531 -57.125 C 45.503906 -57.125 45.4375 -57.125 45.4375 -57.261719 C 45.4375 -57.402344 45.574219 -57.46875 45.644531 -57.46875 Z M 43.707031 -55.535156 C 43.914062 -55.671875 44.054688 -55.808594 44.121094 -55.808594 C 44.191406 -55.808594 44.121094 -55.671875 43.914062 -55.464844 C 43.777344 -55.328125 43.570312 -55.1875 43.570312 -55.1875 C 43.5 -55.1875 43.570312 -55.328125 43.707031 -55.535156 Z M 41.011719 -53.042969 C 41.21875 -53.183594 41.425781 -53.320312 41.496094 -53.320312 C 41.5625 -53.320312 41.425781 -53.183594 41.289062 -52.976562 C 41.148438 -52.835938 40.941406 -52.699219 40.871094 -52.699219 C 40.804688 -52.699219 40.871094 -52.835938 41.011719 -53.042969 Z M 40.804688 -50.070312 C 40.871094 -50.070312 40.804688 -49.933594 40.59375 -49.722656 C 40.457031 -49.585938 40.25 -49.449219 40.179688 -49.449219 C 40.113281 -49.449219 40.179688 -49.585938 40.386719 -49.722656 C 40.527344 -49.933594 40.734375 -50.070312 40.804688 -50.070312 Z M 39.695312 -51.730469 C 40.113281 -52.144531 40.457031 -52.421875 40.527344 -52.351562 C 40.59375 -52.285156 40.25 -51.9375 39.835938 -51.589844 L 39.003906 -50.898438 Z M 38.796875 -49.65625 C 38.9375 -49.722656 39.003906 -49.65625 39.003906 -49.515625 C 39.003906 -49.378906 38.867188 -49.308594 38.726562 -49.308594 C 38.453125 -49.308594 38.453125 -49.449219 38.796875 -49.65625 Z M 36.722656 -48.6875 C 37.136719 -49.03125 36.929688 -48.757812 36.167969 -47.996094 C 35.476562 -47.234375 34.785156 -46.613281 34.648438 -46.542969 C 34.164062 -46.265625 35.824219 -47.996094 36.722656 -48.6875 Z M 33.472656 -45.503906 C 33.679688 -45.714844 33.816406 -45.851562 33.886719 -45.851562 C 33.957031 -45.851562 33.886719 -45.714844 33.75 -45.503906 C 33.542969 -45.367188 33.402344 -45.230469 33.335938 -45.230469 C 33.265625 -45.230469 33.335938 -45.367188 33.472656 -45.503906 Z M 36.652344 -45.78125 C 36.722656 -45.714844 35.824219 -44.8125 34.71875 -43.777344 C 33.609375 -42.671875 32.710938 -41.769531 32.640625 -41.769531 C 32.640625 -41.703125 32.574219 -41.703125 32.574219 -41.839844 C 32.574219 -42.046875 36.585938 -45.921875 36.652344 -45.78125 Z M 30.914062 -43.15625 C 31.8125 -43.847656 32.503906 -44.46875 32.503906 -44.398438 C 32.503906 -44.332031 31.8125 -43.636719 30.914062 -42.945312 C 30.082031 -42.1875 29.390625 -41.632812 29.390625 -41.703125 C 29.390625 -41.769531 30.082031 -42.394531 30.914062 -43.15625 Z M 27.457031 -36.929688 C 27.039062 -36.585938 26.832031 -36.445312 26.972656 -36.652344 C 27.179688 -37.070312 28.214844 -37.96875 28.214844 -37.761719 C 28.214844 -37.691406 27.871094 -37.34375 27.457031 -36.929688 Z M 23.722656 -36.308594 C 24.480469 -37.070312 25.382812 -37.898438 25.726562 -38.246094 C 26.074219 -38.589844 26.832031 -39.28125 27.386719 -39.835938 L 28.425781 -40.804688 L 27.59375 -39.835938 C 27.179688 -39.351562 25.796875 -38.035156 24.550781 -36.929688 C 23.238281 -35.894531 22.890625 -35.617188 23.722656 -36.308594 Z M 22.269531 -66.804688 C 22.40625 -67.015625 22.613281 -67.152344 22.683594 -67.152344 C 22.753906 -67.152344 22.683594 -66.945312 22.476562 -66.804688 C 22.339844 -66.597656 22.128906 -66.460938 22.0625 -66.460938 C 21.992188 -66.460938 22.128906 -66.667969 22.269531 -66.804688 Z M 21.371094 -65.90625 C 21.644531 -66.113281 21.921875 -66.253906 21.992188 -66.253906 C 21.992188 -66.253906 21.855469 -66.113281 21.644531 -65.839844 C 21.371094 -65.628906 21.164062 -65.421875 21.09375 -65.421875 C 21.023438 -65.421875 21.164062 -65.628906 21.371094 -65.90625 Z M 2.90625 -33.195312 C 2.558594 -32.226562 2.214844 -30.707031 2.144531 -29.597656 C 2.074219 -28.976562 1.9375 -28.425781 1.796875 -28.285156 C 1.660156 -28.148438 1.519531 -27.800781 1.453125 -27.457031 C 1.382812 -27.109375 1.3125 -27.386719 1.3125 -28.078125 C 1.382812 -28.839844 1.519531 -29.808594 1.660156 -30.222656 C 1.796875 -30.636719 2.074219 -31.535156 2.28125 -32.226562 C 2.488281 -32.917969 2.765625 -33.542969 2.90625 -33.609375 C 3.042969 -33.679688 3.042969 -33.542969 2.90625 -33.195312 Z M 3.664062 -34.925781 C 3.457031 -34.300781 3.179688 -33.816406 3.113281 -33.816406 C 2.972656 -33.886719 3.179688 -34.71875 3.597656 -35.683594 C 4.21875 -37.070312 4.21875 -36.378906 3.664062 -34.925781 Z M 22.0625 -63.902344 C 19.019531 -60.582031 17.429688 -58.644531 15.976562 -56.640625 C 15.078125 -55.328125 14.175781 -54.152344 14.039062 -53.941406 C 13.625 -53.527344 11.6875 -50.347656 9.75 -47.027344 C 8.921875 -45.503906 7.953125 -43.777344 7.605469 -43.15625 C 7.191406 -42.53125 6.914062 -41.632812 6.777344 -40.941406 C 6.777344 -40.320312 6.570312 -39.695312 6.433594 -39.558594 C 6.222656 -39.417969 6.222656 -39.488281 6.292969 -39.902344 L 6.433594 -40.386719 L 5.949219 -39.902344 C 5.671875 -39.628906 5.464844 -39.210938 5.464844 -39.003906 C 5.394531 -38.796875 5.257812 -38.519531 5.1875 -38.519531 C 5.046875 -38.382812 4.910156 -38.105469 4.910156 -37.828125 C 4.910156 -37.550781 4.703125 -37.207031 4.496094 -37.070312 C 4.148438 -36.792969 4.082031 -36.859375 4.289062 -37.34375 C 4.496094 -37.898438 5.949219 -40.804688 7.191406 -43.292969 C 7.539062 -44.054688 8.160156 -45.089844 8.507812 -45.644531 C 9.40625 -46.957031 9.40625 -47.027344 10.648438 -49.171875 C 12.242188 -52.007812 13.210938 -53.597656 13.832031 -54.289062 C 14.109375 -54.632812 14.59375 -55.257812 14.800781 -55.671875 C 15.078125 -56.085938 15.90625 -57.195312 16.667969 -58.160156 C 17.429688 -59.128906 18.1875 -60.167969 18.394531 -60.511719 C 18.949219 -61.34375 20.125 -62.65625 21.4375 -63.695312 C 22.613281 -64.730469 22.960938 -64.800781 22.0625 -63.902344 Z M 23.375 -65.285156 C 23.097656 -65.078125 23.03125 -65.078125 23.238281 -65.355469 C 23.304688 -65.5625 23.445312 -65.699219 23.511719 -65.628906 C 23.582031 -65.5625 23.511719 -65.355469 23.375 -65.285156 Z M 26.832031 -68.8125 C 26.625 -68.605469 26.347656 -68.464844 26.28125 -68.464844 C 26.210938 -68.464844 26.347656 -68.605469 26.625 -68.882812 C 26.902344 -69.089844 27.109375 -69.226562 27.179688 -69.226562 C 27.25 -69.226562 27.109375 -69.089844 26.832031 -68.8125 Z M 29.046875 -70.886719 C 28.5625 -70.332031 28.078125 -69.847656 28.007812 -69.847656 C 27.730469 -69.917969 28.078125 -70.332031 28.976562 -71.023438 L 29.945312 -71.855469 Z M 29.046875 -70.886719 "/></g></g></g><g fill="#4c4556" fill-opacity="1"><g transform="translate(220.41541, 105.774054)"><g><path d="M 62.105469 -85.132812 C 61.757812 -85.0625 61.6875 -85.203125 61.757812 -85.546875 C 61.894531 -85.894531 61.757812 -86.03125 61.34375 -85.964844 C 61.066406 -85.964844 60.789062 -86.101562 60.71875 -86.171875 C 60.582031 -86.308594 60.167969 -86.378906 59.820312 -86.378906 C 59.40625 -86.378906 58.992188 -86.445312 58.921875 -86.65625 C 58.785156 -86.929688 58.09375 -86.238281 55.257812 -82.574219 C 54.082031 -81.121094 52.699219 -79.394531 52.144531 -78.703125 C 51.589844 -78.078125 51.109375 -77.386719 51.109375 -77.25 C 51.109375 -77.109375 50.96875 -76.902344 50.761719 -76.835938 C 50.554688 -76.765625 50.414062 -76.488281 50.414062 -76.210938 C 50.414062 -75.933594 50.347656 -75.796875 50.207031 -75.867188 C 49.933594 -76.003906 49.722656 -75.726562 49.585938 -75.035156 C 49.515625 -74.34375 48.546875 -73.167969 48.203125 -73.238281 C 48.066406 -73.238281 47.925781 -73.101562 47.925781 -72.890625 C 47.925781 -72.683594 47.71875 -72.339844 47.375 -72.132812 C 47.097656 -71.855469 46.890625 -71.648438 47.027344 -71.507812 C 47.234375 -71.234375 46.199219 -69.917969 45.851562 -69.917969 C 45.644531 -69.988281 45.574219 -69.78125 45.644531 -69.574219 C 45.644531 -69.363281 45.574219 -69.15625 45.367188 -69.019531 C 45.160156 -68.949219 44.953125 -68.742188 44.953125 -68.535156 C 44.953125 -67.980469 44.46875 -67.359375 44.054688 -67.496094 C 43.777344 -67.566406 43.707031 -67.496094 43.847656 -67.222656 C 44.054688 -66.738281 41.289062 -62.105469 40.871094 -62.3125 C 40.804688 -62.378906 40.734375 -62.378906 40.734375 -62.242188 C 40.804688 -62.105469 40.664062 -61.828125 40.527344 -61.480469 C 40.320312 -61.066406 40.113281 -60.859375 39.835938 -60.929688 C 39.558594 -61.066406 39.488281 -60.996094 39.628906 -60.652344 C 39.765625 -60.304688 39.351562 -59.613281 33.609375 -50.96875 C 32.710938 -49.585938 31.8125 -48.546875 31.675781 -48.546875 C 31.535156 -48.617188 31.464844 -48.480469 31.605469 -48.273438 C 31.675781 -48.132812 31.464844 -47.582031 31.191406 -47.097656 C 30.84375 -46.613281 30.566406 -46.199219 30.566406 -46.128906 C 30.566406 -45.78125 29.738281 -45.089844 29.53125 -45.296875 C 29.390625 -45.367188 29.390625 -45.296875 29.460938 -45.089844 C 29.667969 -44.605469 26.902344 -40.386719 26.554688 -40.527344 C 26.417969 -40.59375 26.347656 -40.457031 26.347656 -40.25 C 26.417969 -39.835938 23.859375 -36.03125 21.230469 -32.574219 C 21.023438 -32.367188 20.609375 -31.8125 20.332031 -31.398438 C 20.054688 -31.050781 19.503906 -30.359375 19.085938 -29.875 C 13.277344 -23.511719 10.996094 -21.164062 9.820312 -20.539062 C 9.476562 -20.261719 9.128906 -19.847656 9.058594 -19.570312 C 8.992188 -19.296875 8.78125 -19.15625 8.230469 -19.085938 C 7.816406 -19.019531 7.261719 -18.949219 6.914062 -18.8125 L 6.292969 -18.601562 L 6.363281 -21.4375 C 6.363281 -26.210938 8.230469 -34.507812 10.582031 -40.113281 C 10.925781 -41.011719 11.757812 -43.222656 12.308594 -44.953125 C 12.933594 -46.75 14.453125 -50.484375 15.628906 -53.320312 C 16.875 -56.085938 18.1875 -59.335938 18.671875 -60.445312 C 19.917969 -63.761719 26.210938 -76.074219 27.664062 -78.21875 C 28.492188 -79.460938 28.90625 -80.359375 28.90625 -80.777344 C 28.90625 -81.191406 28.976562 -81.675781 29.183594 -81.882812 C 29.53125 -82.503906 28.839844 -83.613281 28.148438 -83.542969 C 27.730469 -83.472656 27.59375 -83.613281 27.523438 -83.957031 C 27.316406 -84.996094 23.722656 -84.855469 23.304688 -83.820312 C 23.238281 -83.542969 23.097656 -83.335938 23.03125 -83.265625 C 22.683594 -83.058594 20.746094 -79.808594 19.503906 -77.457031 C 19.15625 -76.835938 15.558594 -69.363281 14.386719 -66.804688 C 13.761719 -65.421875 12.726562 -63.140625 12.101562 -61.550781 C 11.480469 -60.027344 10.304688 -57.261719 9.476562 -55.394531 C 8.644531 -53.527344 8.023438 -51.9375 8.023438 -51.867188 C 8.023438 -51.800781 7.054688 -49.242188 5.878906 -46.128906 C 3.320312 -39.628906 2.421875 -36.792969 1.519531 -32.988281 C 0.136719 -26.765625 0 -21.230469 1.3125 -19.15625 C 2.28125 -17.703125 3.113281 -16.875 4.5625 -15.976562 C 6.984375 -14.386719 9.75 -13.96875 10.996094 -14.9375 C 11.34375 -15.214844 12.171875 -15.769531 12.863281 -16.113281 C 14.453125 -16.945312 15.835938 -18.050781 17.636719 -19.988281 C 21.644531 -24.136719 23.789062 -26.972656 25.449219 -30.015625 C 26.347656 -31.605469 26.347656 -32.019531 25.65625 -31.398438 C 25.035156 -30.84375 25.035156 -30.914062 26.832031 -33.609375 C 27.523438 -34.71875 28.425781 -36.238281 28.839844 -37 C 29.324219 -37.761719 29.738281 -38.382812 29.875 -38.382812 C 30.015625 -38.3125 30.152344 -38.519531 30.152344 -38.796875 C 30.152344 -39.210938 33.679688 -44.746094 34.578125 -45.714844 C 34.855469 -45.988281 35.0625 -46.335938 35.0625 -46.40625 C 35.0625 -46.542969 35.269531 -46.75 35.476562 -46.820312 C 35.824219 -46.957031 35.824219 -46.890625 35.476562 -46.335938 C 35.203125 -45.988281 34.785156 -45.296875 34.441406 -44.882812 C 33.679688 -43.984375 32.574219 -41.769531 32.574219 -41.355469 C 32.574219 -40.871094 32.988281 -41.21875 33.402344 -42.046875 C 33.679688 -42.53125 34.441406 -43.847656 35.203125 -45.023438 C 36.652344 -47.234375 36.792969 -47.582031 36.238281 -47.375 C 35.894531 -47.234375 35.894531 -47.304688 36.101562 -47.789062 C 36.167969 -48.132812 36.515625 -48.6875 36.792969 -49.03125 C 37 -49.378906 37.207031 -49.863281 37.207031 -50 C 37.207031 -50.554688 36.585938 -50 35.753906 -48.546875 C 34.855469 -47.027344 33.816406 -45.503906 32.710938 -43.984375 C 30.84375 -41.5625 28.976562 -38.589844 28.425781 -37.484375 C 28.285156 -37.136719 28.007812 -36.859375 27.800781 -36.859375 C 27.59375 -36.859375 27.457031 -36.652344 27.457031 -36.445312 C 27.523438 -36.03125 25.863281 -33.816406 25.519531 -33.816406 C 25.382812 -33.816406 25.035156 -33.609375 24.757812 -33.335938 C 24.480469 -33.125 24.964844 -33.957031 25.796875 -35.203125 C 26.625 -36.445312 27.730469 -38.105469 28.148438 -38.867188 C 28.632812 -39.558594 29.945312 -41.703125 31.121094 -43.5 C 34.441406 -48.546875 34.855469 -49.308594 34.855469 -49.65625 C 34.855469 -49.792969 34.925781 -50 34.992188 -50 C 35.269531 -50 36.167969 -50.898438 36.167969 -51.175781 C 36.167969 -51.316406 35.960938 -51.175781 35.683594 -50.832031 C 34.785156 -49.65625 35.203125 -50.691406 36.378906 -52.421875 C 37 -53.390625 37.550781 -54.082031 37.550781 -53.941406 C 37.550781 -53.804688 37.414062 -53.597656 37.277344 -53.457031 C 37.136719 -53.25 37.070312 -53.113281 37.136719 -53.042969 C 37.34375 -52.835938 38.3125 -54.566406 38.105469 -54.84375 C 38.035156 -54.980469 38.035156 -55.050781 38.175781 -54.980469 C 38.3125 -54.910156 38.660156 -55.1875 38.9375 -55.671875 C 39.28125 -56.226562 39.351562 -56.433594 39.144531 -56.226562 C 38.519531 -55.742188 38.589844 -56.019531 39.488281 -57.261719 C 39.902344 -57.886719 40.320312 -58.230469 40.320312 -58.09375 C 40.386719 -57.953125 41.703125 -59.683594 43.292969 -62.035156 C 46.199219 -66.390625 51.109375 -73.375 54.496094 -77.800781 C 56.226562 -80.015625 59.40625 -83.613281 59.40625 -83.335938 C 59.476562 -82.851562 58.507812 -81.46875 56.226562 -78.355469 C 53.390625 -74.621094 52.628906 -73.308594 53.042969 -73.375 C 53.25 -73.375 53.25 -73.308594 53.183594 -73.167969 C 53.113281 -73.03125 52.90625 -72.960938 52.835938 -73.03125 C 52.558594 -73.167969 51.867188 -72.199219 52.007812 -71.925781 C 52.214844 -71.714844 51.453125 -70.539062 51.039062 -70.539062 C 50.898438 -70.539062 50.625 -70.332031 50.484375 -70.058594 C 50.140625 -69.503906 50.414062 -69.433594 50.832031 -70.058594 C 51.175781 -70.402344 51.175781 -70.402344 50.96875 -69.988281 C 50.625 -69.226562 49.65625 -68.050781 49.378906 -68.050781 C 49.308594 -68.050781 49.171875 -67.84375 49.171875 -67.566406 C 49.171875 -67.289062 48.964844 -66.875 48.757812 -66.667969 C 48.273438 -66.113281 46.679688 -63.832031 45.230469 -61.621094 C 44.539062 -60.582031 43.914062 -59.890625 43.777344 -59.960938 C 43.636719 -60.027344 43.570312 -59.960938 43.707031 -59.820312 C 43.847656 -59.613281 42.738281 -57.675781 41.289062 -55.671875 C 40.871094 -55.117188 40.320312 -54.289062 40.042969 -53.734375 C 39.558594 -52.628906 39.351562 -52.558594 39.488281 -53.390625 C 39.695312 -54.359375 39.210938 -53.941406 38.382812 -52.421875 C 37.484375 -50.691406 37.550781 -50.207031 38.382812 -51.589844 C 38.726562 -52.144531 39.074219 -52.558594 39.210938 -52.558594 C 39.28125 -52.558594 39.351562 -52.492188 39.28125 -52.351562 C 37.207031 -49.03125 36.792969 -48.203125 36.792969 -47.855469 C 36.792969 -47.164062 37.207031 -47.441406 37.828125 -48.757812 C 38.246094 -49.515625 38.660156 -50.207031 38.796875 -50.347656 C 39.003906 -50.484375 39.488281 -51.246094 39.902344 -52.007812 C 41.355469 -54.566406 49.03125 -65.90625 54.632812 -73.722656 C 55.878906 -75.519531 56.917969 -77.109375 56.917969 -77.25 C 56.917969 -77.386719 57.054688 -77.734375 57.261719 -77.941406 C 57.46875 -78.21875 57.609375 -78.5625 57.609375 -78.769531 C 57.609375 -78.910156 58.023438 -79.601562 58.578125 -80.292969 L 59.613281 -81.605469 L 59.820312 -80.984375 C 60.375 -79.601562 59.960938 -74.691406 58.921875 -68.949219 C 58.714844 -68.050781 58.644531 -66.945312 58.644531 -66.460938 C 58.644531 -65.90625 58.578125 -65.421875 58.4375 -65.285156 C 58.300781 -65.148438 57.886719 -63.695312 57.46875 -62.035156 C 55.257812 -53.527344 54.496094 -51.109375 52.976562 -47.097656 C 52.007812 -44.675781 51.109375 -42.394531 50.898438 -42.046875 C 50.761719 -41.632812 50.625 -41.148438 50.625 -40.871094 C 50.625 -40.320312 48.480469 -35.339844 47.164062 -32.851562 L 46.40625 -31.398438 L 43.429688 -30.359375 C 38.796875 -28.632812 32.574219 -25.589844 28.769531 -23.03125 C 25.242188 -20.679688 23.722656 -19.640625 23.238281 -19.15625 C 22.960938 -18.878906 22.683594 -18.671875 22.546875 -18.671875 C 22.40625 -18.671875 18.8125 -15.769531 16.390625 -13.625 C 8.714844 -6.847656 3.871094 -1.3125 1.453125 3.457031 C 0.414062 5.464844 0 7.125 0.554688 6.914062 C 1.039062 6.777344 1.039062 6.984375 0.554688 7.332031 C 0.207031 7.605469 0.414062 8.574219 1.246094 10.511719 C 1.796875 11.757812 4.5625 14.109375 6.015625 14.59375 C 8.921875 15.421875 13.902344 14.386719 18.328125 11.894531 C 23.375 9.058594 30.292969 2.972656 33.75 -1.589844 C 39.351562 -9.199219 43.292969 -15.144531 45.714844 -19.988281 C 46.613281 -21.785156 48.066406 -24.550781 48.894531 -26.140625 C 50.761719 -29.597656 50.207031 -29.324219 57.125 -29.667969 C 61.964844 -29.875 61.757812 -29.945312 62.519531 -28.839844 C 62.726562 -28.5625 63.003906 -28.5625 63.761719 -28.699219 C 64.523438 -28.839844 64.664062 -28.976562 64.664062 -29.53125 C 64.664062 -29.945312 64.316406 -30.429688 63.625 -30.984375 C 62.035156 -32.367188 60.511719 -32.640625 55.808594 -32.367188 C 53.734375 -32.226562 52.007812 -32.226562 52.007812 -32.296875 C 52.007812 -32.367188 52.421875 -33.195312 52.90625 -34.164062 C 53.390625 -35.203125 54.21875 -37.070312 54.703125 -38.3125 C 55.257812 -39.558594 56.15625 -41.703125 56.710938 -43.015625 C 61.757812 -55.394531 64.664062 -67.84375 64.316406 -76.417969 C 64.179688 -79.738281 64.109375 -80.292969 63.347656 -82.574219 C 62.726562 -84.578125 62.449219 -85.132812 62.105469 -85.132812 Z M 13.070312 -52.976562 C 13 -52.558594 12.792969 -51.867188 12.515625 -51.382812 C 12.242188 -50.691406 12.101562 -50.625 12.171875 -51.039062 C 12.242188 -51.382812 12.515625 -52.074219 12.792969 -52.628906 C 13.070312 -53.390625 13.140625 -53.457031 13.070312 -52.976562 Z M 9.128906 -50.414062 C 9.199219 -50.625 9.335938 -50.691406 9.335938 -50.554688 C 9.335938 -50.414062 9.265625 -50.140625 9.128906 -49.933594 C 8.992188 -49.792969 8.851562 -49.722656 8.851562 -49.863281 C 8.851562 -50 8.992188 -50.207031 9.128906 -50.414062 Z M 6.085938 -42.324219 C 6.15625 -42.671875 6.292969 -43.085938 6.433594 -43.222656 C 6.570312 -43.5 6.570312 -43.429688 6.5 -43.015625 C 6.433594 -42.738281 6.222656 -42.324219 6.15625 -42.117188 C 5.949219 -41.839844 5.949219 -41.910156 6.085938 -42.324219 Z M 5.1875 -39.765625 C 5.257812 -40.113281 5.464844 -40.664062 5.601562 -41.078125 C 5.878906 -41.632812 5.878906 -41.632812 5.808594 -41.148438 C 5.738281 -40.871094 5.53125 -40.320312 5.394531 -39.902344 C 5.117188 -39.351562 5.046875 -39.351562 5.1875 -39.765625 Z M 4.839844 -38.867188 C 4.910156 -39.074219 5.046875 -39.144531 5.046875 -39.003906 C 5.046875 -38.519531 4.632812 -37.828125 4.5625 -38.175781 C 4.5625 -38.382812 4.703125 -38.660156 4.839844 -38.867188 Z M 3.941406 -21.230469 C 3.871094 -21.09375 3.804688 -21.230469 3.804688 -21.507812 C 3.804688 -21.855469 3.804688 -21.992188 3.871094 -21.855469 C 4.011719 -21.644531 4.011719 -21.4375 3.941406 -21.230469 Z M 4.148438 -22.820312 C 4.082031 -22.339844 4.011719 -22.40625 4.011719 -23.167969 C 3.941406 -24.066406 4.289062 -27.179688 4.632812 -28.699219 C 4.703125 -29.390625 4.703125 -29.390625 4.355469 -29.046875 C 3.734375 -28.425781 3.25 -25.105469 3.390625 -22.0625 C 3.390625 -20.539062 3.457031 -19.296875 3.457031 -19.296875 C 3.390625 -19.296875 3.25 -19.640625 3.042969 -20.054688 C 2.558594 -21.300781 2.695312 -26.28125 3.320312 -29.53125 C 3.871094 -32.710938 5.394531 -37.898438 6.5 -40.734375 C 6.707031 -41.355469 7.332031 -42.945312 7.882812 -44.398438 C 8.4375 -45.851562 8.992188 -47.097656 9.128906 -47.164062 C 9.265625 -47.234375 9.40625 -47.441406 9.265625 -47.648438 C 9.128906 -48.132812 10.234375 -51.175781 10.582031 -51.175781 C 10.71875 -51.175781 10.71875 -51.316406 10.648438 -51.523438 C 10.511719 -51.800781 10.582031 -51.867188 10.789062 -51.730469 C 10.996094 -51.589844 11.066406 -51.660156 10.996094 -51.800781 C 10.859375 -51.9375 10.996094 -52.558594 11.273438 -53.183594 C 11.550781 -53.804688 12.035156 -54.84375 12.242188 -55.601562 C 13.210938 -58.230469 15.214844 -62.726562 15.421875 -62.519531 C 15.558594 -62.449219 15.492188 -61.828125 15.285156 -61.203125 C 15.078125 -60.582031 14.867188 -59.820312 14.730469 -59.542969 C 14.59375 -58.992188 13 -54.980469 11.964844 -52.492188 C 10.925781 -49.933594 10.304688 -48.617188 10.097656 -48.617188 C 10.027344 -48.617188 9.957031 -48.480469 9.957031 -48.203125 C 9.957031 -47.648438 9.335938 -46.128906 9.058594 -46.058594 C 8.921875 -46.058594 8.921875 -45.78125 8.992188 -45.503906 C 9.128906 -45.089844 9.058594 -44.953125 8.851562 -45.023438 C 8.644531 -45.160156 8.644531 -45.089844 8.714844 -44.882812 C 8.78125 -44.746094 8.644531 -44.054688 8.367188 -43.292969 C 7.539062 -41.21875 4.839844 -32.640625 4.839844 -32.367188 C 4.839844 -32.160156 4.703125 -31.949219 4.496094 -31.882812 C 4.289062 -31.742188 4.082031 -31.257812 4.011719 -30.84375 C 3.871094 -30.082031 3.941406 -29.945312 4.355469 -29.945312 C 4.703125 -30.015625 4.980469 -30.5 5.671875 -32.851562 C 6.640625 -35.960938 8.023438 -40.179688 8.574219 -41.632812 C 9.128906 -43.15625 10.027344 -45.714844 10.511719 -46.957031 C 10.925781 -48.203125 11.824219 -50.070312 11.964844 -50.070312 C 12.101562 -50.070312 11.894531 -49.722656 9.613281 -43.363281 C 6.5 -35.0625 4.632812 -28.078125 4.148438 -22.820312 Z M 33.472656 -25.035156 C 34.027344 -25.519531 35.410156 -26.074219 35.410156 -25.933594 C 35.410156 -25.863281 34.855469 -25.519531 34.164062 -25.171875 C 33.125 -24.621094 32.988281 -24.621094 33.472656 -25.035156 Z M 31.328125 -23.789062 C 31.464844 -23.789062 31.328125 -23.582031 30.984375 -23.375 C 30.636719 -23.097656 30.292969 -22.820312 30.152344 -22.890625 C 29.808594 -22.820312 30.984375 -23.789062 31.328125 -23.789062 Z M 28.148438 -21.785156 C 28.355469 -21.992188 28.632812 -22.128906 28.699219 -22.0625 C 28.839844 -21.992188 28.632812 -21.785156 28.285156 -21.644531 C 27.730469 -21.371094 27.730469 -21.371094 28.148438 -21.785156 Z M 26.417969 -20.539062 C 26.695312 -20.816406 26.902344 -20.953125 27.039062 -20.886719 C 27.109375 -20.746094 26.902344 -20.609375 26.625 -20.402344 C 26.074219 -20.125 26.074219 -20.125 26.417969 -20.539062 Z M 19.226562 -14.867188 C 19.433594 -15.144531 19.710938 -15.351562 19.777344 -15.351562 C 19.847656 -15.351562 19.710938 -15.144531 19.433594 -14.9375 C 19.226562 -14.660156 18.949219 -14.453125 18.878906 -14.453125 C 18.8125 -14.453125 18.949219 -14.660156 19.226562 -14.867188 Z M 15.90625 -12.171875 C 16.320312 -12.515625 16.667969 -12.792969 16.667969 -12.726562 C 16.667969 -12.65625 16.320312 -12.308594 15.976562 -11.894531 C 15.558594 -11.550781 15.214844 -11.273438 15.214844 -11.34375 C 15.214844 -11.410156 15.558594 -11.757812 15.90625 -12.171875 Z M 39.558594 -11.757812 C 39.351562 -11.550781 39.144531 -11.410156 39.144531 -11.410156 C 39.074219 -11.410156 39.144531 -11.550781 39.28125 -11.757812 C 39.417969 -11.964844 39.628906 -12.101562 39.695312 -12.101562 C 39.765625 -12.101562 39.695312 -11.964844 39.558594 -11.757812 Z M 45.503906 -24.414062 C 43.984375 -21.230469 41.980469 -17.636719 41.148438 -16.253906 C 41.011719 -16.042969 40.527344 -15.214844 40.042969 -14.386719 C 39.558594 -13.554688 38.382812 -11.757812 37.414062 -10.304688 C 31.257812 -1.3125 29.117188 1.175781 23.789062 5.601562 C 19.847656 8.851562 16.390625 10.925781 12.449219 12.308594 C 10.925781 12.792969 8.78125 13.070312 7.46875 12.863281 C 6.847656 12.792969 6.292969 12.65625 6.292969 12.65625 C 6.15625 12.585938 7.125 12.449219 8.367188 12.308594 C 10.648438 12.101562 12.585938 11.410156 14.800781 10.167969 C 15.492188 9.683594 15.976562 9.613281 16.042969 9.75 C 16.113281 9.890625 16.253906 9.957031 16.320312 9.890625 C 16.460938 9.820312 16.527344 9.613281 16.460938 9.476562 C 16.320312 9.335938 16.875 8.851562 17.703125 8.367188 C 18.464844 7.882812 19.710938 6.984375 20.46875 6.363281 C 21.230469 5.738281 22.0625 5.257812 22.199219 5.257812 C 22.40625 5.324219 22.546875 5.1875 22.546875 4.980469 C 22.546875 4.773438 22.753906 4.632812 22.890625 4.703125 C 23.097656 4.703125 23.167969 4.703125 23.097656 4.5625 C 22.960938 4.496094 24.136719 3.179688 25.589844 1.660156 C 27.039062 0.207031 29.253906 -2.28125 30.429688 -3.734375 C 33.75 -7.816406 39.628906 -16.945312 41.21875 -20.402344 C 41.910156 -21.785156 41.289062 -21.371094 40.457031 -19.847656 C 40.042969 -19.085938 39.695312 -18.464844 39.628906 -18.464844 C 39.558594 -18.464844 39.628906 -18.742188 39.835938 -19.15625 C 40.25 -19.917969 40.25 -20.054688 39.972656 -20.054688 C 39.835938 -20.054688 38.589844 -18.1875 37.277344 -15.90625 C 30.984375 -5.324219 24.207031 2.28125 16.804688 7.191406 C 14.246094 8.921875 12.792969 9.683594 10.582031 10.441406 C 8.714844 11.132812 6.015625 11.410156 4.980469 10.925781 C 4.425781 10.71875 4.355469 10.511719 4.355469 9.75 C 4.496094 7.882812 5.53125 5.53125 7.332031 2.835938 C 9.820312 -0.828125 10.234375 -1.3125 14.523438 -5.949219 C 15.769531 -7.191406 16.734375 -8.367188 16.734375 -8.507812 C 16.734375 -8.851562 17.082031 -9.335938 17.359375 -9.335938 C 17.496094 -9.335938 17.496094 -9.265625 17.429688 -9.128906 C 17.082031 -8.644531 17.703125 -8.992188 18.8125 -10.027344 C 19.433594 -10.648438 19.917969 -11.203125 19.847656 -11.273438 C 19.777344 -11.410156 20.46875 -12.171875 21.4375 -13.070312 C 22.40625 -13.902344 23.097656 -14.730469 23.03125 -14.730469 C 22.890625 -14.867188 22.613281 -14.660156 22.339844 -14.453125 C 20.746094 -13.070312 18.050781 -10.789062 17.359375 -10.304688 C 16.597656 -9.820312 16.597656 -9.820312 16.734375 -10.234375 C 16.804688 -10.789062 20.539062 -14.246094 23.789062 -16.804688 C 26.695312 -19.085938 33.125 -23.375 35.339844 -24.550781 C 36.308594 -25.035156 37.550781 -25.726562 38.175781 -26.074219 C 39.074219 -26.625 44.882812 -29.117188 45.230469 -29.117188 C 45.574219 -29.183594 44.398438 -27.664062 43.914062 -27.457031 C 43.570312 -27.316406 43.429688 -27.386719 43.5 -27.523438 C 43.707031 -27.800781 43.570312 -27.800781 42.808594 -27.457031 C 42.394531 -27.316406 42.1875 -27.109375 42.253906 -27.039062 C 42.394531 -26.902344 41.703125 -26.488281 40.871094 -26.140625 C 38.660156 -25.171875 34.578125 -22.820312 34.578125 -22.546875 C 34.578125 -22.339844 35.269531 -22.269531 35.410156 -22.546875 C 35.410156 -22.683594 36.03125 -23.03125 36.792969 -23.375 C 37.550781 -23.789062 38.382812 -24.207031 38.660156 -24.414062 C 40.042969 -25.242188 40.386719 -25.382812 40.59375 -25.449219 C 40.734375 -25.519531 41.5625 -25.863281 42.460938 -26.28125 C 43.363281 -26.695312 44.054688 -26.972656 44.121094 -26.902344 C 44.191406 -26.902344 43.984375 -26.417969 43.707031 -25.863281 C 43.429688 -25.3125 43.15625 -24.621094 43.015625 -24.273438 L 42.808594 -23.722656 L 43.292969 -24.273438 C 43.570312 -24.621094 44.054688 -25.382812 44.398438 -26.003906 C 44.953125 -27.109375 45.574219 -27.664062 46.679688 -27.941406 C 47.304688 -28.078125 47.304688 -28.007812 45.503906 -24.414062 Z M 37.207031 -14.660156 C 37.34375 -14.730469 37.277344 -14.523438 37.070312 -14.175781 C 36.792969 -13.832031 36.585938 -13.554688 36.515625 -13.554688 C 36.378906 -13.554688 36.929688 -14.453125 37.207031 -14.660156 Z M 37.621094 -15.421875 C 37.761719 -15.699219 37.898438 -15.90625 37.96875 -15.90625 C 38.105469 -15.90625 38.035156 -15.699219 37.898438 -15.421875 C 37.761719 -15.214844 37.550781 -14.9375 37.484375 -14.9375 C 37.414062 -14.9375 37.484375 -15.144531 37.621094 -15.421875 Z M 38.589844 -16.945312 C 39.210938 -18.050781 39.695312 -18.601562 39.210938 -17.636719 C 39.003906 -17.289062 38.660156 -16.734375 38.453125 -16.527344 C 38.246094 -16.183594 38.3125 -16.460938 38.589844 -16.945312 Z M 46.75 -29.253906 C 46.265625 -28.90625 46.265625 -28.976562 46.679688 -29.324219 C 46.890625 -29.597656 47.097656 -29.738281 47.164062 -29.667969 C 47.234375 -29.597656 47.097656 -29.460938 46.75 -29.253906 Z M 48.203125 -29.597656 C 47.925781 -28.90625 47.71875 -28.839844 47.71875 -29.460938 C 47.648438 -29.738281 47.855469 -29.945312 48.066406 -30.015625 C 48.410156 -30.152344 48.480469 -30.082031 48.203125 -29.597656 Z M 54.359375 -43.777344 C 52.628906 -39.351562 52.285156 -38.519531 50.414062 -34.234375 C 49.378906 -31.949219 49.308594 -31.949219 48.410156 -31.8125 L 47.441406 -31.742188 L 48.757812 -34.300781 C 49.449219 -35.683594 50.277344 -37 50.554688 -37.136719 C 50.832031 -37.277344 51.039062 -37.484375 51.039062 -37.621094 C 51.039062 -37.828125 51.316406 -38.453125 51.660156 -39.074219 C 53.597656 -42.738281 54.152344 -43.914062 55.050781 -46.265625 C 55.601562 -47.648438 56.085938 -48.6875 56.085938 -48.546875 C 56.085938 -48.339844 55.328125 -46.265625 54.359375 -43.777344 Z M 29.046875 -35.0625 C 29.460938 -35.894531 29.460938 -36.03125 29.117188 -36.03125 C 28.90625 -36.03125 28.769531 -35.894531 28.769531 -35.683594 C 28.769531 -35.546875 28.5625 -34.992188 28.285156 -34.507812 C 27.664062 -33.265625 28.285156 -33.816406 29.046875 -35.0625 Z M 30.84375 -37.96875 C 31.398438 -39.003906 30.707031 -38.660156 30.082031 -37.550781 C 29.738281 -37 29.460938 -36.445312 29.460938 -36.378906 C 29.460938 -36.101562 30.429688 -37.207031 30.84375 -37.96875 Z M 32.089844 -40.320312 C 32.019531 -40.664062 31.121094 -39.488281 31.121094 -39.144531 C 31.121094 -38.9375 31.257812 -38.796875 31.328125 -38.796875 C 31.605469 -38.867188 32.089844 -39.835938 32.089844 -40.320312 Z M 32.089844 -40.320312 "/></g></g></g><g clip-path="url(#65203e520e)"><path stroke-linecap="butt" transform="matrix(1.103808, 0, 0, 1.084917, 116.153657, 113.940885)" fill="none" stroke-linejoin="miter" d="M -0.00118949 0.000480305 L 129.596376 0.000480305 L 129.596376 20.296527 L -0.00118949 20.296527 L -0.00118949 0.000480305 " stroke="#464064" stroke-width="1.358434" stroke-opacity="1" stroke-miterlimit="4"/></g><g fill="#4c4556" fill-opacity="1"><g transform="translate(135.591223, 127.688289)"><g><path d="M 1.421875 0 L 1.421875 -3.125 L 3.664062 0 L 4.542969 0 L 2.097656 -3.328125 L 4.542969 -6.660156 L 3.664062 -6.660156 L 1.421875 -3.527344 L 1.421875 -6.660156 L 0.734375 -6.660156 L 0.734375 0 Z M 1.421875 0 "/></g></g></g><g fill="#4c4556" fill-opacity="1"><g transform="translate(142.139772, 127.688289)"><g><path d="M 5.554688 -2.203125 L 5.554688 -6.660156 L 4.867188 -6.660156 L 4.867188 -2.105469 C 4.867188 -1.832031 4.820312 -1.605469 4.71875 -1.421875 C 4.4375 -0.871094 3.886719 -0.597656 3.074219 -0.597656 C 2.546875 -0.597656 2.125 -0.714844 1.8125 -0.949219 C 1.449219 -1.214844 1.273438 -1.597656 1.273438 -2.105469 L 1.273438 -6.660156 L 0.585938 -6.660156 L 0.585938 -2.203125 C 0.585938 -1.480469 0.824219 -0.910156 1.292969 -0.5 C 1.734375 -0.109375 2.332031 0.0898438 3.074219 0.0898438 C 3.808594 0.0898438 4.398438 -0.109375 4.847656 -0.5 C 5.316406 -0.910156 5.554688 -1.480469 5.554688 -2.203125 Z M 5.554688 -2.203125 "/></g></g></g><g fill="#4c4556" fill-opacity="1"><g transform="translate(150.185588, 127.688289)"><g><path d="M 7.304688 -3.113281 L 3.839844 -3.113281 L 3.839844 -2.515625 L 6.542969 -2.515625 C 6.335938 -1.9375 5.992188 -1.46875 5.503906 -1.125 C 5.015625 -0.773438 4.464844 -0.605469 3.867188 -0.605469 C 3.105469 -0.605469 2.457031 -0.871094 1.917969 -1.410156 C 1.390625 -1.949219 1.125 -2.605469 1.125 -3.359375 C 1.125 -4.113281 1.390625 -4.761719 1.929688 -5.296875 C 2.457031 -5.828125 3.105469 -6.101562 3.867188 -6.101562 C 4.4375 -6.101562 4.957031 -5.933594 5.414062 -5.613281 C 5.886719 -5.289062 6.21875 -4.867188 6.433594 -4.328125 L 7.160156 -4.328125 C 6.933594 -5.0625 6.511719 -5.652344 5.90625 -6.101562 C 5.296875 -6.550781 4.59375 -6.789062 3.800781 -6.789062 C 3.367188 -6.789062 2.949219 -6.6875 2.535156 -6.511719 C 2.117188 -6.335938 1.753906 -6.089844 1.441406 -5.777344 C 1.125 -5.464844 0.882812 -5.101562 0.707031 -4.691406 C 0.527344 -4.269531 0.441406 -3.820312 0.441406 -3.347656 C 0.441406 -2.878906 0.527344 -2.429688 0.707031 -2.015625 C 0.882812 -1.597656 1.125 -1.234375 1.441406 -0.921875 C 1.753906 -0.605469 2.117188 -0.363281 2.535156 -0.1875 C 2.949219 -0.0117188 3.398438 0.078125 3.867188 0.078125 C 4.671875 0.078125 5.394531 -0.175781 6.042969 -0.695312 C 6.6875 -1.222656 7.089844 -1.890625 7.238281 -2.703125 Z M 7.304688 -3.113281 "/></g></g></g><g fill="#4c4556" fill-opacity="1"><g transform="translate(159.836317, 127.688289)"><g><path d="M 1.421875 -0.6875 L 1.421875 -6.660156 L 0.734375 -6.660156 L 0.734375 0 L 3.800781 0 L 3.800781 -0.6875 Z M 1.421875 -0.6875 "/></g></g></g><g fill="#4c4556" fill-opacity="1"><g transform="translate(165.738993, 127.688289)"><g><path d="M 4.691406 0 L 4.691406 -0.636719 L 1.421875 -0.636719 L 1.421875 -3.007812 L 4.59375 -3.007812 L 4.59375 -3.652344 L 1.421875 -3.652344 L 1.421875 -6.023438 L 4.691406 -6.023438 L 4.691406 -6.660156 L 0.734375 -6.660156 L 0.734375 0 Z M 4.691406 0 "/></g></g></g><g fill="#4c4556" fill-opacity="1"><g transform="translate(173.070429, 127.688289)"><g><path d="M 1.421875 -3.289062 L 1.421875 -6.003906 L 2.96875 -6.003906 C 3.367188 -6.003906 3.691406 -5.875 3.9375 -5.621094 C 4.171875 -5.367188 4.300781 -5.054688 4.300781 -4.660156 C 4.300781 -4.269531 4.171875 -3.945312 3.917969 -3.683594 C 3.664062 -3.417969 3.347656 -3.289062 2.96875 -3.289062 Z M 4.984375 -4.652344 C 4.984375 -5.21875 4.769531 -5.710938 4.359375 -6.089844 C 3.957031 -6.464844 3.457031 -6.660156 2.871094 -6.660156 L 0.734375 -6.660156 L 0.734375 0 L 1.421875 0 L 1.421875 -2.632812 L 2.214844 -2.632812 L 4.171875 0 L 5.09375 0 L 3.035156 -2.632812 C 3.554688 -2.664062 3.996094 -2.851562 4.359375 -3.191406 C 4.769531 -3.574219 4.984375 -4.0625 4.984375 -4.652344 Z M 4.984375 -4.652344 "/></g></g></g><g fill="#4c4556" fill-opacity="1"><g transform="translate(180.304009, 127.688289)"><g/></g></g><g fill="#4c4556" fill-opacity="1"><g transform="translate(184.856207, 127.688289)"><g><path d="M 7.304688 -3.113281 L 3.839844 -3.113281 L 3.839844 -2.515625 L 6.542969 -2.515625 C 6.335938 -1.9375 5.992188 -1.46875 5.503906 -1.125 C 5.015625 -0.773438 4.464844 -0.605469 3.867188 -0.605469 C 3.105469 -0.605469 2.457031 -0.871094 1.917969 -1.410156 C 1.390625 -1.949219 1.125 -2.605469 1.125 -3.359375 C 1.125 -4.113281 1.390625 -4.761719 1.929688 -5.296875 C 2.457031 -5.828125 3.105469 -6.101562 3.867188 -6.101562 C 4.4375 -6.101562 4.957031 -5.933594 5.414062 -5.613281 C 5.886719 -5.289062 6.21875 -4.867188 6.433594 -4.328125 L 7.160156 -4.328125 C 6.933594 -5.0625 6.511719 -5.652344 5.90625 -6.101562 C 5.296875 -6.550781 4.59375 -6.789062 3.800781 -6.789062 C 3.367188 -6.789062 2.949219 -6.6875 2.535156 -6.511719 C 2.117188 -6.335938 1.753906 -6.089844 1.441406 -5.777344 C 1.125 -5.464844 0.882812 -5.101562 0.707031 -4.691406 C 0.527344 -4.269531 0.441406 -3.820312 0.441406 -3.347656 C 0.441406 -2.878906 0.527344 -2.429688 0.707031 -2.015625 C 0.882812 -1.597656 1.125 -1.234375 1.441406 -0.921875 C 1.753906 -0.605469 2.117188 -0.363281 2.535156 -0.1875 C 2.949219 -0.0117188 3.398438 0.078125 3.867188 0.078125 C 4.671875 0.078125 5.394531 -0.175781 6.042969 -0.695312 C 6.6875 -1.222656 7.089844 -1.890625 7.238281 -2.703125 Z M 7.304688 -3.113281 "/></g></g></g><g fill="#4c4556" fill-opacity="1"><g transform="translate(194.506936, 127.688289)"><g><path d="M 3.308594 -3.132812 L 5.828125 -6.660156 L 4.957031 -6.660156 L 2.96875 -3.808594 L 0.980469 -6.660156 L 0.0976562 -6.660156 L 2.625 -3.125 L 2.625 0 L 3.308594 0 Z M 3.308594 -3.132812 "/></g></g></g><g fill="#4c4556" fill-opacity="1"><g transform="translate(202.337457, 127.688289)"><g><path d="M 6.601562 -3.347656 C 6.601562 -2.585938 6.328125 -1.9375 5.796875 -1.410156 C 5.257812 -0.871094 4.613281 -0.605469 3.859375 -0.605469 C 3.105469 -0.605469 2.457031 -0.871094 1.929688 -1.410156 C 1.390625 -1.9375 1.125 -2.585938 1.125 -3.347656 C 1.125 -4.09375 1.390625 -4.738281 1.929688 -5.277344 C 2.457031 -5.808594 3.105469 -6.082031 3.859375 -6.082031 C 4.613281 -6.082031 5.257812 -5.808594 5.796875 -5.277344 C 6.328125 -4.738281 6.601562 -4.09375 6.601562 -3.347656 Z M 7.285156 -3.347656 C 7.285156 -3.820312 7.1875 -4.261719 7.011719 -4.679688 C 6.835938 -5.09375 6.589844 -5.457031 6.277344 -5.769531 C 5.964844 -6.070312 5.601562 -6.316406 5.191406 -6.492188 C 4.769531 -6.667969 4.328125 -6.765625 3.859375 -6.765625 C 3.386719 -6.765625 2.9375 -6.667969 2.527344 -6.492188 C 2.117188 -6.316406 1.753906 -6.070312 1.441406 -5.769531 C 1.125 -5.457031 0.882812 -5.09375 0.707031 -4.679688 C 0.527344 -4.261719 0.441406 -3.820312 0.441406 -3.347656 C 0.441406 -2.878906 0.527344 -2.429688 0.707031 -2.015625 C 0.882812 -1.597656 1.125 -1.234375 1.441406 -0.921875 C 1.753906 -0.605469 2.117188 -0.363281 2.527344 -0.1875 C 2.9375 -0.0117188 3.386719 0.078125 3.859375 0.078125 C 4.328125 0.078125 4.769531 -0.0117188 5.191406 -0.1875 C 5.601562 -0.363281 5.964844 -0.605469 6.277344 -0.921875 C 6.589844 -1.234375 6.835938 -1.597656 7.011719 -2.015625 C 7.1875 -2.429688 7.285156 -2.878906 7.285156 -3.347656 Z M 5.0625 -8.089844 C 4.976562 -8.167969 4.867188 -8.21875 4.75 -8.21875 C 4.621094 -8.21875 4.515625 -8.167969 4.4375 -8.089844 C 4.359375 -8 4.320312 -7.894531 4.320312 -7.777344 C 4.320312 -7.660156 4.359375 -7.550781 4.4375 -7.472656 C 4.515625 -7.382812 4.621094 -7.34375 4.75 -7.34375 C 4.867188 -7.34375 4.976562 -7.382812 5.0625 -7.472656 C 5.140625 -7.550781 5.191406 -7.660156 5.191406 -7.777344 C 5.191406 -7.894531 5.140625 -8 5.0625 -8.089844 Z M 3.28125 -8.089844 C 3.191406 -8.167969 3.085938 -8.21875 2.96875 -8.21875 C 2.839844 -8.21875 2.734375 -8.167969 2.652344 -8.089844 C 2.574219 -8 2.535156 -7.894531 2.535156 -7.777344 C 2.535156 -7.660156 2.574219 -7.550781 2.652344 -7.472656 C 2.734375 -7.382812 2.839844 -7.34375 2.96875 -7.34375 C 3.085938 -7.34375 3.191406 -7.382812 3.28125 -7.472656 C 3.359375 -7.550781 3.410156 -7.660156 3.410156 -7.777344 C 3.410156 -7.894531 3.359375 -8 3.28125 -8.089844 Z M 3.28125 -8.089844 "/></g></g></g><g fill="#4c4556" fill-opacity="1"><g transform="translate(211.96862, 127.688289)"><g><path d="M 1.421875 -4.90625 L 5.160156 0.410156 L 5.160156 -6.660156 L 4.476562 -6.660156 L 4.476562 -1.761719 L 0.734375 -7.082031 L 0.734375 0 L 1.421875 0 Z M 1.421875 -4.90625 "/></g></g></g><g fill="#4c4556" fill-opacity="1"><g transform="translate(219.769789, 127.688289)"><g><path d="M 7.304688 -3.113281 L 3.839844 -3.113281 L 3.839844 -2.515625 L 6.542969 -2.515625 C 6.335938 -1.9375 5.992188 -1.46875 5.503906 -1.125 C 5.015625 -0.773438 4.464844 -0.605469 3.867188 -0.605469 C 3.105469 -0.605469 2.457031 -0.871094 1.917969 -1.410156 C 1.390625 -1.949219 1.125 -2.605469 1.125 -3.359375 C 1.125 -4.113281 1.390625 -4.761719 1.929688 -5.296875 C 2.457031 -5.828125 3.105469 -6.101562 3.867188 -6.101562 C 4.4375 -6.101562 4.957031 -5.933594 5.414062 -5.613281 C 5.886719 -5.289062 6.21875 -4.867188 6.433594 -4.328125 L 7.160156 -4.328125 C 6.933594 -5.0625 6.511719 -5.652344 5.90625 -6.101562 C 5.296875 -6.550781 4.59375 -6.789062 3.800781 -6.789062 C 3.367188 -6.789062 2.949219 -6.6875 2.535156 -6.511719 C 2.117188 -6.335938 1.753906 -6.089844 1.441406 -5.777344 C 1.125 -5.464844 0.882812 -5.101562 0.707031 -4.691406 C 0.527344 -4.269531 0.441406 -3.820312 0.441406 -3.347656 C 0.441406 -2.878906 0.527344 -2.429688 0.707031 -2.015625 C 0.882812 -1.597656 1.125 -1.234375 1.441406 -0.921875 C 1.753906 -0.605469 2.117188 -0.363281 2.535156 -0.1875 C 2.949219 -0.0117188 3.398438 0.078125 3.867188 0.078125 C 4.671875 0.078125 5.394531 -0.175781 6.042969 -0.695312 C 6.6875 -1.222656 7.089844 -1.890625 7.238281 -2.703125 Z M 7.304688 -3.113281 "/></g></g></g><g fill="#4c4556" fill-opacity="1"><g transform="translate(229.420522, 127.688289)"><g><path d="M 3.308594 -3.132812 L 5.828125 -6.660156 L 4.957031 -6.660156 L 2.96875 -3.808594 L 0.980469 -6.660156 L 0.0976562 -6.660156 L 2.625 -3.125 L 2.625 0 L 3.308594 0 Z M 3.308594 -3.132812 "/></g></g></g><g fill="#4c4556" fill-opacity="1"><g transform="translate(237.251039, 127.688289)"><g><path d="M 1.421875 0 L 1.421875 -6.660156 L 0.734375 -6.660156 L 0.734375 0 Z M 1.421875 0 "/></g></g></g></svg>